<?xml version="1.0" encoding="UTF-8" standalone="no"?>
<!-- Created with Inkscape (http://www.inkscape.org/) -->
<svg xmlns:inkscape="http://www.inkscape.org/namespaces/inkscape" xmlns:rdf="http://www.w3.org/1999/02/22-rdf-syntax-ns#" xmlns="http://www.w3.org/2000/svg" xmlns:xlink="http://www.w3.org/1999/xlink" xmlns:ns1="http://sozi.baierouge.fr" xmlns:cc="http://creativecommons.org/ns#" xmlns:sodipodi="http://sodipodi.sourceforge.net/DTD/sodipodi-0.dtd" xmlns:dc="http://purl.org/dc/elements/1.1/" id="svg2" xml:space="preserve" viewBox="0 0 34.102 21.991" version="1.1" inkscape:version="0.91 r13725">
  <defs id="defs6">
    <linearGradient id="linearGradient24" y2="-7.7876" gradientUnits="userSpaceOnUse" x2="38.723" gradientTransform="matrix(.624 .00036111 .00034286 .624 3.1207 10.784)" y1="-7.7876" x1="-4.4971">
      <stop id="stop26" style="stop-color:#a0a1a3" offset="0"/>
      <stop id="stop28" style="stop-color:#78797a" offset="1"/>
    </linearGradient>
    <linearGradient id="linearGradient42" y2="-14011" gradientUnits="userSpaceOnUse" x2="18125" gradientTransform="matrix(-.60368 .15792 -.15792 -.60368 8727.5 -11309)" y1="-14011" x1="18078">
      <stop id="stop44" style="stop-color:#cccccc" offset="0"/>
      <stop id="stop46" style="stop-color:#ffffff" offset="1"/>
    </linearGradient>
    <linearGradient id="linearGradient60" y2="-16.462" gradientUnits="userSpaceOnUse" x2="46.794" gradientTransform="matrix(.624 -.00039418 -.00041026 .624 -3.0351 16.947)" y1="-16.462" x1="7.2188">
      <stop id="stop62" style="stop-color:#cccccc" offset="0"/>
      <stop id="stop64" style="stop-color:#ffffff" offset="1"/>
    </linearGradient>
    <clipPath id="clipPath156">
      <path id="path158" d="m0 17.593h28v-14h-28v14z" inkscape:connector-curvature="0"/>
    </clipPath>
    <clipPath id="clipPath162">
      <path id="path164" d="m27.137 10.737c0.105 1.336-0.934 2.485-3.121 3.446-1.395 0.621-3.032 1.054-4.903 1.297 0.032 0.097-0.008 0.175-0.125 0.238-0.035 0.019-0.074 0.039-0.121 0.058-0.453 0.016-0.828 0.118-1.125 0.297-0.133 0.078-0.297 0.239-0.488 0.473-0.192 0.238-0.395 0.434-0.609 0.59-0.2 0.113-0.36 0.191-0.485 0.23l-0.039 0.02h-0.019c-0.024 0.012-0.047 0.015-0.063 0.019-0.055 0.028-0.187 0.012-0.398-0.047-0.239-0.054-0.426-0.085-0.559-0.089-0.215-0.032-0.375-0.008-0.48 0.07-0.11 0.133-0.204 0.211-0.286 0.238-0.082 0.024-0.293 0.02-0.64-0.012-0.321-0.035-0.586-0.089-0.797-0.175l-0.238-0.164c-0.164 0.211-0.43 0.3-0.805 0.265-0.238-0.004-0.465-0.086-0.676-0.25l-0.277-0.164c-0.504-0.117-0.809-0.242-0.91-0.375l-0.153-0.523c0.078 0.027-0.066-0.082-0.433-0.328-0.211-0.137-0.344-0.274-0.395-0.407-0.101-0.164-0.18-0.257-0.234-0.285-0.332-0.062-0.656-0.129-0.977-0.195-0.058 0.07-0.121 0.121-0.183 0.156l-0.16 0.016c-0.024-0.004-0.043-0.008-0.059-0.02l-0.039-0.019c-0.145-0.047-0.278-0.164-0.395-0.348-0.668-0.18-1.308-0.383-1.929-0.613-2.836-1.09-4.414-2.383-4.735-3.883-0.066-0.293-0.082-0.582-0.043-0.863-0.129-1.489 0.914-2.758 3.125-3.805 1.75-0.867 3.856-1.406 6.309-1.609 0.07 0.019 0.14 0.05 0.219 0.082 0.004-0.004 0.011-0.004 0.019 0 0.856-0.196 2.063-0.258 3.625-0.196 1.57 0.067 3.176 0.27 4.809 0.602 1.629 0.328 3.14 0.805 4.535 1.418 2.512 1.113 3.914 2.433 4.211 3.953 0.066 0.313 0.082 0.613 0.047 0.902z" inkscape:connector-curvature="0"/>
    </clipPath>
    <clipPath id="clipPath170">
      <path id="path172" d="m0 4h28v14h-28v-14z" inkscape:connector-curvature="0"/>
    </clipPath>
    <linearGradient id="linearGradient178" y2="-7.7881" gradientUnits="userSpaceOnUse" x2="38.723" gradientTransform="matrix(.62387 .011156 -.010452 .62388 2.9311 14.879)" y1="-7.7881" x1="-4.4941">
      <stop id="stop180" style="stop-color:#a0a1a3" offset="0"/>
      <stop id="stop182" style="stop-color:#78797a" offset="1"/>
    </linearGradient>
    <linearGradient id="linearGradient188" y2="-14011" gradientUnits="userSpaceOnUse" x2="18125" gradientTransform="matrix(-.60629 .14744 -.14744 -.60629 8921.4 -11152)" y1="-14011" x1="18078">
      <stop id="stop190" style="stop-color:#cccccc" offset="0"/>
      <stop id="stop192" style="stop-color:#ffffff" offset="1"/>
    </linearGradient>
    <linearGradient id="linearGradient198" y2="-16.462" gradientUnits="userSpaceOnUse" x2="46.794" gradientTransform="matrix(.62388 .010401 -.011205 .62387 -3.3301 20.935)" y1="-16.462" x1="7.2188">
      <stop id="stop200" style="stop-color:#cccccc" offset="0"/>
      <stop id="stop202" style="stop-color:#ffffff" offset="1"/>
    </linearGradient>
  </defs>
  <g id="g10" transform="matrix(1.25 0 0 -1.25 0 21.991)">
    <g id="g12">
      <g id="g14">
        <g id="g16">
          <g id="g22">
            <path id="path30" style="fill-rule:evenodd;fill:url(#linearGradient24)" d="m24.188 9.987c2.371-1.187 3.378-2.601 3.023-4.246-0.352-1.64-1.965-3.023-4.836-4.148-2.867-1.102-6.156-1.633-9.855-1.59-3.704 0.039-6.743 0.664-9.114 1.871-2.371 1.188-3.379 2.602-3.027 4.242 0.355 1.645 1.969 3.016 4.84 4.121 2.867 1.121 6.156 1.664 9.855 1.621 3.727-0.062 6.762-0.687 9.114-1.871z" inkscape:connector-curvature="0"/>
          </g>
        </g>
      </g>
      <g id="g32">
        <g id="g34">
          <g id="g40">
            <path id="path48" style="fill-rule:evenodd;fill:url(#linearGradient42)" d="m24.188 10.112c2.371-1.082 3.378-2.371 3.023-3.871-0.332-1.496-1.934-2.754-4.805-3.773-2.867-1.02-6.164-1.508-9.886-1.469-3.704 0.043-6.743 0.613-9.114 1.719-2.371 1.101-3.379 2.402-3.027 3.898 0.355 1.496 1.969 2.758 4.84 3.774 2.867 1.019 6.156 1.511 9.855 1.468 3.727-0.062 6.762-0.644 9.114-1.746z" inkscape:connector-curvature="0"/>
          </g>
        </g>
      </g>
      <g id="g50">
        <g id="g52">
          <g id="g58">
            <path id="path66" style="fill-rule:evenodd;fill:url(#linearGradient60)" d="m23.375 9.737c2.164-0.918 3.09-1.996 2.777-3.246-0.332-1.246-1.808-2.297-4.429-3.152-2.645-0.852-5.661-1.258-9.051-1.215-3.391 0.043-6.176 0.531-8.36 1.465-2.164 0.918-3.089 1.996-2.777 3.246 0.332 1.246 1.809 2.297 4.43 3.152 2.64 0.852 5.66 1.258 9.047 1.215 3.39-0.039 6.179-0.531 8.363-1.465z" inkscape:connector-curvature="0"/>
          </g>
        </g>
      </g>
      <path id="path68" style="fill-rule:evenodd;fill:#aeb3b3" d="m23.5 7.804 1.156-0.375c0.207-0.063 0.321-0.188 0.34-0.375 0.063-0.168 0.211-0.344 0.438-0.531 0.125-0.083 0.187-0.168 0.187-0.25 0.043-0.145 0.012-0.407-0.094-0.782-0.101-0.375-0.539-0.769-1.308-1.183-0.563-0.293-1.125-0.52-1.688-0.688-0.351-0.125-0.582-0.207-0.683-0.25-0.125-0.019-0.368-0.031-0.719-0.031-0.27 0-0.508-0.039-0.719-0.125-0.187-0.063-0.394-0.094-0.621-0.094-0.293 0-0.637-0.082-1.031-0.25-0.625-0.25-0.969-0.383-1.031-0.402-0.27-0.086-0.52-0.106-0.747-0.063-0.312 0.082-0.636 0.157-0.968 0.215-0.375 0.063-0.727 0.074-1.059 0.031-0.437-0.019-0.762-0.031-0.969-0.031-0.355 0.024-0.582 0.055-0.687 0.094-0.102 0.062-0.219 0.137-0.344 0.219-0.164 0.125-0.269 0.199-0.312 0.218-0.039 0.02-0.145 0.043-0.309 0.063-0.586 0.269-0.957 0.406-1.125 0.406s-0.375 0.07-0.625 0.219c-0.25 0.125-0.676 0.187-1.277 0.187-0.457 0-0.688 0.102-0.688 0.313 0 0.144-0.238 0.269-0.719 0.371-0.289 0.063-0.57 0.305-0.839 0.719l-0.5-0.059c-0.168-0.086-0.262-0.125-0.282-0.125-0.019-0.023-0.125-0.023-0.312 0-0.395 0-0.746-0.043-1.059-0.125-0.418-0.105-0.718-0.035-0.906 0.215-0.125 0.148-0.438 0.273-0.938 0.375-0.187 0.063-0.238 0.18-0.156 0.344 0.086 0.125 0.168 0.211 0.25 0.25l2.246 0.469c-0.351 0.105-0.664 0.156-0.933 0.156-0.25-0.02-0.449-0.031-0.594-0.031-0.23-0.02-0.457 0-0.687 0.062-0.227 0.063-0.063 0.258 0.5 0.594 0.48 0.289 0.82 0.465 1.031 0.527 1.351 0.188 2.465 0.438 3.336 0.75 0.894 0.313 6.043-0.031 15.445-1.027z" inkscape:connector-curvature="0"/>
      <path id="path70" style="fill-rule:evenodd;fill:#ffd740" d="m19.32 11.483 0.032-0.093c0.039-0.043 0.093-0.063 0.156-0.063 0.187 0 0.394-0.176 0.621-0.531 0.086-0.125 0.156-0.258 0.219-0.406 0.062-0.121 0.187-0.196 0.375-0.215 0.269-0.024 0.488-0.137 0.656-0.344l0.062-0.406c0.039-0.25 0.094-0.387 0.157-0.406 0.226-0.043 0.406-0.106 0.531-0.188l0.559-0.469 0.468-0.093c0.356-0.102 0.606-0.227 0.75-0.371 0.27-0.274 0.301-0.555 0.094-0.844l0.219-0.156c0.144-0.125 0.226-0.25 0.25-0.375 0.019-0.188-0.024-0.395-0.125-0.625l0.402-0.094c0.293-0.063 0.492-0.145 0.594-0.25 0.125-0.125 0.117-0.281-0.031-0.469-0.145-0.164-0.344-0.301-0.59-0.402-0.375-0.024-0.606-0.094-0.688-0.219-0.086-0.149-0.511-0.274-1.281-0.375-0.188-0.02-0.363 0.082-0.527 0.312-0.125 0.207-0.211 0.313-0.25 0.313-0.418-0.149-0.77-0.219-1.063-0.219l-1.34 0.063c-0.398 0.019-0.718-0.086-0.968-0.313l-0.219-0.344c-0.395-0.187-0.758-0.281-1.09-0.281-0.355 0.02-0.617 0.02-0.781 0-0.293-0.019-0.543-0.094-0.75-0.219-0.27-0.164-0.508-0.269-0.719-0.312-0.246-0.039-0.633-0.051-1.152-0.027-0.438 0.019-0.719 0.101-0.844 0.246l-0.063 0.25-0.996-0.032c-0.23 0-0.406 0.086-0.531 0.25l-0.094 0.282c-0.312-0.043-0.57-0.043-0.781 0-0.187 0.168-0.426 0.269-0.715 0.312-0.148 0.043-0.293 0.02-0.437-0.062-0.188-0.082-0.364-0.125-0.532-0.125-0.226-0.02-0.394 0.074-0.5 0.281l-0.093 0.375c-0.039 0.144-0.196 0.187-0.465 0.125-0.125-0.043-0.274-0.012-0.438 0.094-0.168 0.125-0.281 0.257-0.343 0.406-0.063 0.121-0.032 0.238 0.093 0.34 0.145 0.105 0.258 0.199 0.344 0.281 0.102 0.125 0.082 0.262-0.062 0.406-0.149 0.145-0.313 0.207-0.5 0.188-0.25-0.02-0.481 0.074-0.688 0.281-0.062 0.063-0.156 0.094-0.281 0.094h-0.188c-0.226-0.043-0.5-0.012-0.808 0.094-0.313 0.101-0.657 0.093-1.031-0.032-0.313-0.144-0.563-0.199-0.75-0.156-0.145 0.02-0.145 0.125 0 0.313l0.25 0.312c-0.227 0.02-0.376 0.133-0.438 0.344-0.02 0.121 0.074 0.238 0.281 0.34l0.344 0.125c-0.125 0.187-0.082 0.394 0.125 0.625 0.207 0.23 0.543 0.406 1 0.531l0.375 0.406c0.227 0.25 0.496 0.344 0.809 0.281 0.062 0.125 0.175 0.176 0.343 0.153 0.207-0.039 0.325-0.059 0.344-0.059 0.145 0.059 0.25 0.133 0.313 0.215l0.187 0.406c0.164 0.25 0.332 0.387 0.5 0.406 0.145 0.02 0.277-0.074 0.402-0.281 0.149-0.187 0.243-0.281 0.282-0.281 0.105 0 0.324 0.187 0.656 0.562 0.043 0.043 0.113 0.137 0.219 0.282 0.062 0.144 0.195 0.281 0.406 0.406 0.375 0.25 0.519 0.352 0.437 0.312l0.184 0.528c0.105 0.148 0.406 0.262 0.906 0.344l0.282 0.187c0.23 0.148 0.457 0.231 0.687 0.25 0.375 0.02 0.633-0.07 0.777-0.281l0.25 0.125c0.231 0.086 0.5 0.144 0.813 0.187 0.351 0.02 0.57 0.02 0.656 0 0.063-0.019 0.156-0.101 0.281-0.25 0.102-0.082 0.258-0.113 0.465-0.093l0.563 0.093c0.207 0.043 0.343 0.051 0.406 0.032 0.125-0.02 0.32-0.114 0.594-0.282 0.207-0.144 0.406-0.343 0.59-0.593 0.187-0.227 0.355-0.383 0.5-0.465 0.293-0.188 0.656-0.293 1.093-0.313 0.227-0.082 0.313-0.199 0.25-0.344z" inkscape:connector-curvature="0"/>
      <path id="path72" style="fill-rule:evenodd;fill:#f0c426" d="m6.871 7.335c0.289 0.102 0.488 0.102 0.594 0 0.082-0.086 0.246-0.137 0.496-0.156 0.273-0.168 0.324-0.344 0.156-0.531l-0.406-0.469c-0.059-0.02-0.133-0.051-0.215-0.094 0.102 0.125 0.082 0.262-0.062 0.406-0.149 0.145-0.313 0.207-0.5 0.188-0.25-0.02-0.481 0.074-0.688 0.281-0.062 0.063-0.156 0.094-0.281 0.094h-0.188c-0.226-0.043-0.5-0.012-0.808 0.094-0.313 0.101-0.657 0.093-1.031-0.032-0.313-0.144-0.563-0.199-0.75-0.156-0.145 0.02-0.145 0.125 0 0.313l0.25 0.312c-0.227 0.02-0.376 0.133-0.438 0.344-0.02 0.101 0.086 0.226 0.312 0.371-0.039-0.27 0.043-0.414 0.25-0.434 0.231-0.023 0.418-0.105 0.563-0.25 0.082-0.023 0.145-0.023 0.187 0 0.083 0.039 0.176 0.102 0.282 0.184 0.105 0.086 0.207 0.18 0.312 0.281 0.082 0.043 0.176 0.031 0.282-0.031 0.058-0.039 0.121-0.113 0.183-0.215 0.063-0.086 0.149-0.137 0.25-0.156 0.086-0.024 0.199-0.024 0.344 0 0.105 0.019 0.23 0 0.375-0.063 0.105-0.043 0.199-0.125 0.281-0.25 0.043-0.062 0.125-0.074 0.25-0.031zm12.449 4.148 0.032-0.093c0.039-0.043 0.093-0.063 0.156-0.063 0.187 0 0.394-0.176 0.621-0.531 0.086-0.125 0.156-0.258 0.219-0.406 0.062-0.121 0.187-0.196 0.375-0.215 0.269-0.024 0.488-0.137 0.656-0.344l0.062-0.406c0.039-0.25 0.094-0.387 0.157-0.406 0.226-0.043 0.406-0.106 0.531-0.188l0.559-0.469 0.468-0.093c0.356-0.102 0.606-0.227 0.75-0.371 0.27-0.274 0.301-0.555 0.094-0.844l0.219-0.156c0.144-0.125 0.226-0.25 0.25-0.375 0.019-0.188-0.024-0.395-0.125-0.625l0.402-0.094c0.293-0.063 0.492-0.145 0.594-0.25 0.148-0.145 0.125-0.321-0.063-0.531l-0.715 0.281c-0.23 0.086-0.468 0.136-0.718 0.156-0.168 0.023-0.313 0.055-0.438 0.094l-0.156 0.094c0 0.148-0.113 0.218-0.344 0.218-0.101 0.106-0.301 0.117-0.594 0.032-0.164-0.04-0.257-0.114-0.277-0.219-0.023-0.164-0.031-0.258-0.031-0.278 0.082-0.168-0.012-0.367-0.281-0.593l-0.157-0.188c-0.25-0.082-0.468-0.125-0.656-0.125l-1.34 0.063c-0.398 0.019-0.718-0.082-0.968-0.313l-0.219-0.344c-0.395-0.187-0.758-0.281-1.09-0.281-0.355 0.024-0.617 0.024-0.781 0-0.293-0.019-0.543-0.094-0.75-0.215-0.27-0.168-0.508-0.273-0.719-0.312-0.246-0.043-0.633-0.055-1.152-0.031-0.438 0.019-0.719 0.101-0.844 0.25l-0.063 0.25-0.996-0.032c-0.23 0-0.406 0.082-0.531 0.246l-0.094 0.282c-0.312-0.039-0.57-0.039-0.781 0l-0.125 0.031-0.559 0.281h-0.035c-0.144 0.043-0.289 0.02-0.433-0.062-0.188-0.082-0.364-0.125-0.532-0.125-0.23-0.02-0.394 0.074-0.5 0.281l-0.093 0.375c-0.039 0.144-0.196 0.187-0.469 0.125-0.125-0.043-0.27-0.012-0.434 0.094-0.168 0.125-0.281 0.257-0.343 0.406-0.063 0.121-0.032 0.238 0.093 0.34 0.106 0.078 0.196 0.152 0.266 0.219-0.07-0.079-0.094-0.153-0.078-0.219 0.019-0.082 0.039-0.156 0.062-0.215 0.02-0.043 0.082-0.086 0.188-0.125 0.062-0.024 0.152 0 0.277 0.062 0.106 0.063 0.188 0.071 0.25 0.032 0.211-0.168 0.418-0.313 0.625-0.438 0.168-0.082 0.293-0.156 0.375-0.219 0.043-0.019 0.145-0.019 0.313 0 0.269 0.02 0.445 0.012 0.531-0.031 0.289 0 0.516-0.031 0.684-0.094 0.062-0.023 0.144 0 0.25 0.063l0.187 0.344c0.043 0.082-0.062 0.187-0.312 0.312l0.437-0.062c0.938-0.211 1.426-0.211 1.465 0v0.152c0.023 0.043 0.074 0.094 0.156 0.156 0.043 0.024 0.074 0.106 0.098 0.25 0 0.125 0.152 0.188 0.465 0.188 0.269 0 0.531-0.008 0.781-0.031 0.168-0.02 0.324 0.011 0.469 0.093 0.039 0.024 0.207 0.074 0.5 0.157 0.144 0.042 0.218 0.125 0.218 0.25-0.125 0.375-0.148 0.601-0.062 0.687 0.125 0.125 0.164 0.281 0.125 0.469-0.024 0.082-0.094 0.207-0.219 0.371-0.125 0.125-0.18 0.25-0.156 0.375l0.062 0.5h-0.312c-0.313 0.082-0.512 0.187-0.594 0.312-0.043 0.125-0.082 0.219-0.125 0.282-0.082 0.101-0.281 0.164-0.594 0.187h-0.652c-0.105 0-0.211 0.082-0.312 0.25-0.25 0.414-0.293 0.621-0.125 0.621 0.144 0 0.406-0.039 0.777-0.125l0.625 0.219c0.125 0.043 0.293 0.062 0.5 0.062 0.207-0.019 0.324-0.062 0.344-0.125 0.019-0.062 0.113-0.144 0.281-0.25 0.187-0.101 0.312-0.156 0.375-0.156 0.226 0 0.457 0.086 0.683 0.25 0.086 0.063 0.149 0.188 0.188 0.375 0.043 0.145 0.117 0.219 0.219 0.219 0.211 0 0.531-0.074 0.968-0.219 0 0.082 0.012 0.156 0.032 0.219 0.062 0.168 0.168 0.25 0.312 0.25 0.125 0-0.062 0.113-0.562 0.344-0.539 0.269-0.789 0.414-0.75 0.437 0.062 0.063-0.071 0.094-0.407 0.094-0.332 0-0.519-0.031-0.558-0.094-0.043-0.062-0.168-0.062-0.375 0-0.188 0.063-0.25 0.133-0.188 0.215 0.043 0.043 0.262 0.148 0.657 0.313 0.25 0.105 0.394 0.218 0.433 0.343 0.024 0.043-0.008 0.063-0.094 0.063l0.625 0.281 0.407-0.219c0.207-0.144 0.406-0.343 0.593-0.593 0.184-0.227 0.352-0.383 0.497-0.465 0.293-0.188 0.656-0.293 1.093-0.313 0.227-0.082 0.313-0.199 0.25-0.344z" inkscape:connector-curvature="0"/>
      <path id="path74" style="fill-rule:evenodd;fill:#e3b924" d="m19.664 10.362c0.102-0.105 0.164-0.179 0.184-0.218 0.043-0.063 0.062-0.118 0.062-0.157 0.024 0 0.074 0.008 0.156 0.032 0.063 0 0.114 0.039 0.157 0.125 0.043 0.062 0.105 0.101 0.187 0.125l0.313-0.098c0.269-0.02 0.488-0.133 0.656-0.34l0.062-0.406c0.039-0.25 0.094-0.387 0.157-0.406l0.156-0.063h-0.031c-0.086-0.144-0.106-0.344-0.063-0.594 0.039-0.25 0.113-0.425 0.215-0.531 0.086-0.082 0.219-0.133 0.406-0.156 0.188-0.02 0.313-0.051 0.375-0.094 0.063-0.039 0.199-0.101 0.406-0.183 0.145-0.063 0.208-0.118 0.188-0.157 0-0.043-0.031-0.105-0.094-0.187-0.023-0.086 0.032-0.149 0.156-0.188 0.376-0.168 0.559-0.301 0.559-0.406 0-0.02 0.063-0.113 0.188-0.281 0.105-0.145 0.105-0.239 0-0.281-0.164-0.043-0.434 0.074-0.809 0.343-0.062 0.043-0.312 0.063-0.75 0.063-0.395-0.02-0.594-0.117-0.594-0.281 0-0.043 0.024-0.137 0.063-0.282 0.023-0.101 0.023-0.176 0-0.218-0.082-0.145-0.114-0.313-0.094-0.5 0-0.141 0.059-0.27 0.172-0.387l-0.078 0.078c-0.414-0.149-0.77-0.219-1.059-0.219l-1.344 0.063c-0.394 0.019-0.718-0.086-0.964-0.313l-0.219-0.344c-0.395-0.187-0.762-0.281-1.094-0.281-0.351 0.02-0.613 0.02-0.781 0-0.289-0.019-0.539-0.094-0.746-0.219-0.313-0.207-0.637-0.32-0.969-0.339-0.125 0.082-0.094 0.214 0.094 0.402 0.105 0.105 0.113 0.262 0.031 0.469s-0.074 0.336 0.031 0.375c0.356 0.187 0.563 0.394 0.625 0.625 0.102 0.312 0.27 0.468 0.5 0.468 0.063 0 0.114 0.082 0.156 0.247 0.063 0.187 0.125 0.312 0.184 0.375 0.043 0.042 0.117 0.093 0.219 0.156 0.062 0.043 0.094 0.094 0.094 0.156 0 0.23-0.051 0.387-0.157 0.469-0.125 0.082-0.207 0.144-0.246 0.187-0.105 0.082-0.125 0.219-0.062 0.407l0.215 0.589-0.215 0.286c-0.211-0.149-0.336-0.106-0.375 0.125-0.024 0.039-0.075 0.152-0.157 0.339-0.042 0.086-0.023 0.149 0.063 0.188 0.082 0.043 0.176 0.086 0.281 0.125 0.063 0.043 0.071 0.125 0.031 0.25l-0.218 0.469-0.282 0.156-0.281 0.312c-0.039 0-0.062 0.008-0.062 0.032-0.039 0.039-0.008 0.093 0.093 0.156 0.106 0.039 0.25 0.195 0.438 0.465 0.168 0.25 0.281 0.386 0.344 0.406 0.082 0 0.207 0.031 0.375 0.094 0.187 0.023 0.375 0.023 0.562 0l0.465-0.063c0.043 0 0.156 0.024 0.344 0.063 0.062 0 0.137-0.039 0.219-0.125 0.125-0.164 0.25-0.301 0.375-0.403 0.019-0.023 0.031-0.136 0.031-0.343 0-0.106 0.094-0.157 0.281-0.157h0.875z" inkscape:connector-curvature="0"/>
      <path id="path76" style="fill-rule:evenodd;fill:#f0c426" d="m19.727 9.456c0.121-0.019 0.277-0.199 0.464-0.531 0.043-0.106-0.007-0.258-0.156-0.469-0.082-0.082-0.176-0.113-0.277-0.094-0.149 0.086-0.281 0.157-0.406 0.219-0.149 0.063-0.274 0.094-0.375 0.094-0.02 0-0.114-0.031-0.282-0.094-0.25-0.062-0.55-0.008-0.906 0.156-0.062 0.145-0.207 0.239-0.434 0.282-0.148 0.043-0.242 0.132-0.281 0.281-0.086 0.23-0.136 0.351-0.156 0.375-0.063 0.082-0.031 0.133 0.094 0.156 0.269 0.02 0.457 0.051 0.558 0.094 0.211 0.039 0.688-0.094 1.438-0.406 0.207-0.082 0.445-0.106 0.719-0.063z" inkscape:connector-curvature="0"/>
      <path id="path78" style="fill-rule:evenodd;fill:#f0c426" d="m19.383 7.523c0.082-0.106 0.125-0.282 0.125-0.532 0-0.187-0.063-0.301-0.188-0.343-0.168-0.02-0.293-0.051-0.375-0.094-0.207-0.145-0.519-0.188-0.937-0.125-0.145 0.019-0.281 0.082-0.406 0.187-0.164 0.145-0.29 0.239-0.372 0.282-0.187 0.082-0.25 0.199-0.187 0.343 0.039 0.145 0.164 0.219 0.371 0.219 0.063 0 0.242 0.039 0.531 0.125 0.27 0.102 0.532 0.145 0.782 0.125 0.332-0.023 0.55-0.086 0.656-0.187z" inkscape:connector-curvature="0"/>
      <path id="path80" style="fill-rule:evenodd;fill:#f0c426" d="m20.223 6.679c0.25 0 0.418-0.094 0.5-0.281 0.062-0.188 0.011-0.333-0.157-0.438-0.144-0.082-0.269-0.102-0.371-0.062-0.187 0.085-0.312 0.136-0.375 0.156-0.187 0.023-0.211 0.136-0.062 0.344 0.121 0.187 0.277 0.281 0.465 0.281z" inkscape:connector-curvature="0"/>
      <path id="path82" style="fill-rule:evenodd;fill:#f0c426" d="m17.293 5.245 0.465-0.312c0.168-0.106 0.25-0.188 0.25-0.25 0.023-0.043 0-0.114-0.063-0.219-0.125-0.25-0.488-0.375-1.09-0.375-0.25 0-0.406 0.019-0.468 0.062-0.145 0.063-0.282 0.118-0.407 0.157-0.25 0.062-0.25 0.218 0 0.468 0.168 0.125 0.481 0.375 0.938 0.747 0.207 0.167 0.332 0.074 0.375-0.278z" inkscape:connector-curvature="0"/>
      <path id="path84" style="fill-rule:evenodd;fill:#f0c426" d="m21.066 9.737c0.188-0.105 0.145-0.25-0.125-0.437-0.082-0.063-0.175-0.043-0.281 0.062-0.082 0.145-0.156 0.25-0.219 0.313-0.101 0.101-0.062 0.156 0.125 0.156 0.188 0.02 0.356-0.012 0.5-0.094z" inkscape:connector-curvature="0"/>
      <path id="path86" style="fill-rule:evenodd;fill:#ffe357" d="m16.387 13.448v-0.156c-0.02-0.039-0.082-0.082-0.188-0.125-0.144-0.039-0.238-0.082-0.281-0.125l-0.031-0.125c-0.063-0.102-0.188-0.164-0.375-0.184-0.164-0.062-0.27-0.117-0.313-0.156-0.101-0.105-0.289-0.156-0.558-0.156-0.125 0.019-0.219 0.039-0.282 0.062-0.062 0-0.156-0.031-0.281-0.093-0.105-0.063-0.031-0.137 0.219-0.219l0.465-0.125c0.086-0.145 0.23-0.25 0.437-0.313 0.063 0 0.074-0.05 0.031-0.156-0.019-0.062 0.063-0.074 0.25-0.031 0.145 0.043 0.27 0.012 0.375-0.094 0.083-0.082 0.125-0.176 0.125-0.281 0-0.063-0.031-0.074-0.093-0.031-0.082 0.019-0.145 0.019-0.188 0l-0.156-0.188c-0.043-0.082-0.094-0.113-0.156-0.094h-0.188c-0.019 0-0.062-0.093-0.125-0.281-0.039-0.125-0.113-0.156-0.219-0.094-0.144 0.086-0.269 0.188-0.375 0.313-0.226 0.269-0.382 0.437-0.464 0.5-0.168 0.125-0.356 0.207-0.563 0.25-0.105 0.019-0.301 0-0.594-0.063-0.226-0.043-0.375-0.043-0.437 0-0.145 0.082-0.488 0.094-1.027 0.032-0.086 0-0.27 0.074-0.563 0.218-0.105 0.063-0.207 0.063-0.312 0-0.125-0.105-0.227-0.179-0.313-0.218-0.082-0.043-0.102-0.157-0.062-0.344 0.043-0.231 0.043-0.375 0-0.438-0.165-0.164-0.25-0.363-0.25-0.589 0-0.063 0.031-0.211 0.093-0.438 0.043-0.207-0.269-0.301-0.933-0.281-0.125 0.125-0.293 0.207-0.5 0.25-0.227 0.062-0.321 0.219-0.282 0.469 0 0.125-0.144 0.226-0.437 0.308-0.145 0.063-0.289 0-0.434-0.183-0.105-0.125-0.242-0.168-0.406-0.125-0.086 0.019-0.156 0.019-0.219 0-0.187-0.086-0.293-0.125-0.312-0.125-0.313-0.086-0.613-0.149-0.906-0.188l-0.653-0.094 0.219 0.219c0.227 0.25 0.496 0.344 0.809 0.281 0.062 0.125 0.175 0.176 0.343 0.153 0.207-0.039 0.325-0.059 0.344-0.059 0.145 0.059 0.25 0.133 0.313 0.215l0.187 0.406c0.164 0.25 0.332 0.387 0.5 0.406 0.145 0.02 0.277-0.074 0.402-0.281 0.149-0.187 0.243-0.281 0.282-0.281 0.105 0 0.324 0.187 0.656 0.562 0.043 0.043 0.113 0.137 0.219 0.282 0.062 0.144 0.195 0.281 0.406 0.406 0.375 0.25 0.519 0.352 0.437 0.312l0.184 0.528c0.105 0.148 0.406 0.262 0.906 0.344l0.282 0.187c0.23 0.148 0.457 0.231 0.687 0.25 0.375 0.02 0.633-0.07 0.777-0.281l0.25 0.125c0.231 0.086 0.5 0.144 0.813 0.187 0.351 0.02 0.57 0.02 0.656 0 0.063-0.019 0.156-0.101 0.281-0.25 0.102-0.082 0.258-0.113 0.465-0.093l0.563 0.093c0.23 0.043 0.394 0.043 0.5 0z" inkscape:connector-curvature="0"/>
      <path id="path88" style="fill-rule:evenodd;fill:#ffe357" d="m6.777 9.487c0.043 0 0.145 0.043 0.313 0.125 0.187 0.082 0.351 0.133 0.5 0.157 0.164 0.019 0.258 0 0.277-0.063 0.063-0.207 0.106-0.324 0.125-0.344 0.149-0.168 0.219-0.269 0.219-0.312 0.043-0.082 0.055-0.207 0.031-0.375-0.019-0.145-0.082-0.219-0.187-0.219-0.125-0.019-0.207-0.051-0.25-0.094-0.102-0.144-0.289-0.125-0.559 0.063-0.125 0.086-0.324 0.117-0.594 0.094-0.207-0.039-0.511-0.032-0.906 0.031-0.25 0.086-0.426 0.125-0.527 0.125-0.336 0-0.543 0.055-0.625 0.156-0.063 0.043-0.032 0.125 0.094 0.25 0.101 0.106 0.195 0.156 0.281 0.156 0.433 0 0.758 0.032 0.965 0.094 0.355 0.106 0.636 0.156 0.843 0.156z" inkscape:connector-curvature="0"/>
      <path id="path90" style="fill-rule:evenodd;fill:#ffe357" d="m13.047 10.019c0.086-0.043 0.332-0.086 0.75-0.125 0.207-0.043 0.312-0.118 0.312-0.219 0.02-0.063 0.02-0.188 0-0.375 0.063-0.188 0.032-0.262-0.093-0.219 0-0.019-0.094-0.074-0.282-0.156-0.019-0.02-0.168-0.031-0.437-0.031-0.332 0-0.613-0.02-0.84-0.063-0.273-0.062-0.461-0.144-0.562-0.25-0.086-0.144-0.168-0.269-0.25-0.375-0.145-0.164-0.45-0.226-0.907-0.187-0.519-0.02-0.82-0.032-0.902-0.032-0.207 0-0.438 0.086-0.688 0.25-0.105 0.106 0.043 0.301 0.438 0.594 0.082 0.043 0.187 0.113 0.312 0.219 0.125 0.082 0.27 0.125 0.438 0.125l0.434-0.031c0.21 0 0.343 0.019 0.406 0.062 0.125 0.082 0.168 0.199 0.125 0.344 0.023 0.164 0.043 0.301 0.062 0.406 0 0.02 0.082 0.145 0.25 0.375 0.313 0.227 0.575 0.352 0.782 0.371 0.164 0 0.226-0.019 0.183-0.062-0.082-0.063-0.113-0.102-0.09-0.125 0.184-0.289 0.371-0.457 0.559-0.496z" inkscape:connector-curvature="0"/>
      <path id="path92" style="fill-rule:evenodd;fill:#ffe357" d="m14.797 8.769c0.062 0.043 0.101 0.105 0.125 0.187 0.019 0.043 0.082 0.074 0.183 0.094 0.106 0.019 0.157 0 0.157-0.063 0.023-0.062 0.031-0.207 0.031-0.437l0.062-0.434c0-0.043 0.032-0.125 0.094-0.25 0.063-0.125 0.086-0.25 0.063-0.375 0-0.144-0.051-0.187-0.157-0.125-0.125 0.082-0.195 0.137-0.218 0.157l-1.278 0.093c-0.355 0.082-0.48 0.262-0.375 0.532 0.02 0.101 0.25 0.144 0.688 0.125 0.125 0.058 0.332 0.226 0.625 0.496z" inkscape:connector-curvature="0"/>
      <path id="path94" style="fill-rule:evenodd;fill:#ffe357" d="m8.742 6.585c-0.332 0.125-0.137 0.262 0.594 0.406 0.125 0.02 0.383 0.012 0.777-0.031 0.086-0.02 0.188 0 0.313 0.063 0.148 0.082 0.301 0.144 0.469 0.187 0.207 0.039 0.375 0.031 0.5-0.031 0.062-0.063 0.156-0.199 0.281-0.406 0.082-0.145 0.051-0.231-0.094-0.25-0.23-0.02-0.363-0.075-0.406-0.157-0.063-0.101-0.156-0.164-0.281-0.187-0.145-0.039-0.27-0.071-0.375-0.094-0.165-0.039-0.458 0.055-0.875 0.281-0.391 0.043-0.696 0.114-0.903 0.219z" inkscape:connector-curvature="0"/>
      <path id="path96" style="fill-rule:evenodd;fill:#fff0a6" d="m6.777 9.487h0.188c0.039 0 0.082-0.019 0.125-0.062 0.039-0.082-0.043-0.199-0.25-0.344-0.063-0.043-0.125-0.062-0.188-0.062-0.144 0.043-0.281 0.062-0.406 0.062-0.187 0-0.301-0.012-0.344-0.031-0.039-0.043-0.125-0.082-0.25-0.125-0.164-0.082-0.312-0.074-0.433 0.031-0.125 0.082-0.149 0.156-0.063 0.219 0.063 0.062 0.164 0.094 0.309 0.094 0.105 0.019 0.305 0.031 0.594 0.031 0.207 0 0.332 0.051 0.375 0.156 0.144 0.043 0.261 0.051 0.343 0.031z" inkscape:connector-curvature="0"/>
      <path id="path98" style="fill-rule:evenodd;fill:#fff0a6" d="m10.301 8.925c0.23 0 0.429-0.063 0.594-0.188 0.167-0.101 0.238-0.207 0.218-0.312-0.019-0.082-0.062-0.113-0.125-0.094h-0.25c-0.062-0.019-0.168 0-0.312 0.063-0.227 0.105-0.352 0.156-0.375 0.156-0.125 0.043-0.156 0.117-0.094 0.219 0.066 0.105 0.18 0.156 0.344 0.156z" inkscape:connector-curvature="0"/>
      <path id="path100" style="fill-rule:evenodd;fill:#fff0a6" d="m12.051 10.483c0.101 0.043 0.289-0.144 0.558-0.558 0.168-0.356 0.18-0.563 0.032-0.625-0.082-0.043-0.246-0.063-0.496-0.063-0.106 0-0.262 0.106-0.469 0.313-0.145 0.144-0.219 0.312-0.219 0.5 0.02 0.082 0.082 0.156 0.188 0.219 0.207 0.101 0.343 0.175 0.406 0.214z" inkscape:connector-curvature="0"/>
      <path id="path102" style="fill-rule:evenodd;fill:#fff0a6" d="m13.922 12.358c0.168 0 0.344-0.043 0.531-0.125 0.145-0.062 0.289-0.168 0.438-0.312 0.101-0.063 0.238-0.125 0.402-0.188 0.105-0.082 0.18-0.125 0.219-0.125l-0.157-0.218c-0.062-0.043-0.238-0.051-0.527-0.032-0.187-0.043-0.336-0.05-0.437-0.031-0.211 0.106-0.344 0.168-0.407 0.188-0.019 0.144-0.074 0.261-0.156 0.343-0.043 0.063-0.105 0.106-0.187 0.125-0.106 0.02-0.188 0.04-0.25 0.063l-0.594 0.25c-0.125 0.039-0.176 0.07-0.156 0.094 0.023 0 0.054 0.008 0.093 0.031 0.168 0.082 0.356 0.125 0.563 0.125 0.125 0 0.23-0.031 0.312-0.094 0.063-0.062 0.168-0.094 0.313-0.094z" inkscape:connector-curvature="0"/>
      <path id="path104" style="fill-rule:evenodd;fill:#fff0a6" d="m14.797 13.23c0.207 0 0.371-0.032 0.496-0.094 0.125-0.063 0.156-0.113 0.094-0.156-0.039-0.04-0.102-0.063-0.188-0.063-0.125-0.019-0.226-0.039-0.308-0.062-0.106-0.04-0.18-0.051-0.219-0.032-0.188 0.063-0.293 0.094-0.313 0.094-0.187 0.023-0.207 0.086-0.062 0.188 0.164 0.085 0.332 0.125 0.5 0.125z" inkscape:connector-curvature="0"/>
      <path id="path106" style="fill-rule:evenodd;fill:#fff0a6" d="m11.395 12.98c0.457 0 0.687-0.071 0.687-0.215 0-0.063-0.031-0.094-0.094-0.094-0.125-0.023-0.242-0.063-0.343-0.125-0.145-0.086-0.25-0.106-0.313-0.063-0.25 0.125-0.387 0.188-0.406 0.188-0.414 0.125-0.258 0.227 0.469 0.309z" inkscape:connector-curvature="0"/>
      <path id="path108" style="fill-rule:evenodd;fill:#fff0a6" d="m12.051 13.292c0.289 0.063 0.437 0.031 0.437-0.094 0-0.101-0.105-0.156-0.312-0.156-0.168 0-0.262 0.043-0.281 0.125-0.024 0.063 0.031 0.106 0.156 0.125z" inkscape:connector-curvature="0"/>
      <path id="path110" style="fill-rule:evenodd;fill:#fff0a6" d="m10.023 10.952 0.032-0.094c0-0.082-0.168-0.125-0.5-0.125l-0.282 0.219c-0.082 0.043-0.093 0.106-0.031 0.188 0.039 0.082 0.133 0.144 0.281 0.187 0 0.043 0.02 0.106 0.063 0.188 0.039 0.125 0.125 0.226 0.25 0.312 0.125 0.082 0.238 0.113 0.34 0.094 0.062 0 0.168-0.035 0.312-0.094 0.188-0.023 0.074-0.179-0.343-0.469l-0.122-0.406z" inkscape:connector-curvature="0"/>
      <path id="path112" style="fill-rule:evenodd;fill:#fff0a6" d="m9.117 10.237c0.438-0.086 0.656-0.136 0.656-0.156 0-0.043-0.074-0.137-0.218-0.281-0.063-0.086-0.106-0.117-0.125-0.094h-0.157c-0.062 0-0.136 0.031-0.218 0.094-0.106 0.101-0.207 0.176-0.313 0.215-0.125 0.086-0.137 0.148-0.031 0.187 0.082 0.043 0.219 0.055 0.406 0.035z" inkscape:connector-curvature="0"/>
      <path id="path114" style="fill-rule:evenodd;fill:#fff0a6" d="m10.832 7.148c0.125 0 0.23-0.063 0.313-0.188 0.105-0.125 0.136-0.219 0.093-0.281-0.043-0.043-0.25 0.019-0.625 0.187l-0.156 0.063c-0.082 0.043-0.094 0.082-0.031 0.125 0.086 0.043 0.219 0.07 0.406 0.094z" inkscape:connector-curvature="0"/>
      <path id="path116" style="fill-rule:evenodd;fill:#ffd740" d="m6.809 7.585c0.125-0.125 0.195-0.336 0.218-0.625 0-0.25-0.054-0.449-0.156-0.594-0.144-0.164-0.324-0.289-0.531-0.375-0.063-0.082-0.156-0.125-0.281-0.125-0.145-0.019-0.25-0.031-0.313-0.031l-0.558-0.094c-0.106 0-0.231-0.07-0.376-0.218-0.085-0.102-0.261-0.153-0.531-0.153-0.082 0-0.156 0.031-0.219 0.094l-0.187 0.215c-0.105 0.086-0.332 0.125-0.687 0.125-0.27 0-0.407 0.074-0.407 0.219 0 0.042 0.086 0.199 0.25 0.468 0.125 0.125 0.344 0.188 0.657 0.188 0.187 0 0.312 0.019 0.374 0.062 0.063 0.082 0.126 0.145 0.188 0.188 0.062 0.019 0.145 0.105 0.25 0.25 0.102 0.144 0.195 0.238 0.281 0.281 0.164 0.063 0.289 0.145 0.375 0.25 0.227 0 0.446 0.063 0.653 0.188 0.25 0.164 0.582 0.058 1-0.313z" inkscape:connector-curvature="0"/>
      <path id="path118" style="fill-rule:evenodd;fill:#f0c426" d="m6.809 7.585c0.125-0.125 0.195-0.336 0.218-0.625 0-0.25-0.054-0.449-0.156-0.594-0.144-0.164-0.324-0.289-0.531-0.375-0.063-0.082-0.156-0.125-0.281-0.125-0.145-0.019-0.25-0.031-0.313-0.031l-0.558-0.094c-0.106 0-0.231-0.07-0.376-0.218-0.085-0.102-0.261-0.153-0.531-0.153-0.082 0-0.156 0.031-0.219 0.094l-0.187 0.215-0.094 0.062c-0.105 0.043-0.301 0.063-0.593 0.063-0.27 0-0.407 0.074-0.407 0.219l0.031 0.062c0.168 0 0.336-0.02 0.5-0.062 0.274-0.102 0.489-0.157 0.657-0.157 0.082 0 0.301 0.055 0.656 0.157 0.207 0.062 0.363 0.125 0.469 0.187 0.019 0.023 0.07 0.031 0.152 0.031h0.375c0.106 0 0.156 0.032 0.156 0.094-0.019 0.082-0.031 0.137-0.031 0.156-0.019 0.043 0.012 0.094 0.094 0.157 0.148 0.062 0.238 0.113 0.281 0.156 0.106 0.062 0.145 0.113 0.125 0.156l-0.156 0.156c-0.063 0.063-0.082 0.125-0.063 0.188 0.043 0.082 0.063 0.133 0.063 0.156 0.019 0.063 0.012 0.113-0.031 0.156l-0.25 0.282c0.269 0.121 0.605 0.019 1-0.313z" inkscape:connector-curvature="0"/>
      <path id="path120" style="fill-rule:evenodd;fill:#e3b924" d="m6.809 7.585c0.125-0.125 0.195-0.336 0.218-0.625 0-0.25-0.054-0.449-0.156-0.594-0.144-0.164-0.324-0.289-0.531-0.375-0.063-0.082-0.156-0.125-0.281-0.125-0.145-0.019-0.25-0.031-0.313-0.031l-0.558-0.094c-0.106 0-0.231-0.07-0.376-0.218-0.085-0.102-0.261-0.153-0.531-0.153-0.082 0-0.156 0.031-0.219 0.094l-0.187 0.215-0.125 0.062h0.031c0.207-0.082 0.457-0.07 0.75 0.032 0.106 0.042 0.168 0.074 0.188 0.093l0.281 0.035c0.145 0.02 0.406 0.071 0.777 0.153 0.231 0.086 0.387 0.125 0.469 0.125 0 0.168 0.012 0.269 0.031 0.312 0.207 0.106 0.313 0.188 0.313 0.25l-0.031 0.313c0 0.082 0.019 0.156 0.062 0.219 0.106 0.082 0.137 0.207 0.094 0.375l0.094-0.063z" inkscape:connector-curvature="0"/>
      <path id="path122" style="fill-rule:evenodd;fill:#ffe357" d="m4.688 6.96c-0.188 0.082-0.219 0.137-0.094 0.156 0.187 0.02 0.281 0.039 0.281 0.063 0 0.062 0.07 0.133 0.219 0.219 0.144 0.101 0.269 0.144 0.371 0.125 0.211-0.043 0.312-0.125 0.312-0.25 0-0.063-0.039-0.176-0.125-0.344-0.039-0.106-0.082-0.156-0.125-0.156-0.101 0-0.164-0.012-0.187-0.032-0.082-0.043-0.152-0.051-0.215-0.031-0.125 0.082-0.273 0.168-0.437 0.25z" inkscape:connector-curvature="0"/>
      <path id="path124" style="fill-rule:evenodd;fill:#ffe357" d="m3.406 6.304c-0.039 0.062-0.019 0.125 0.063 0.187 0.043 0.043 0.093 0.063 0.156 0.063h0.313c0.374 0 0.593-0.074 0.656-0.219 0.039-0.062 0.039-0.082 0-0.062-0.086 0-0.168-0.02-0.25-0.063-0.106-0.039-0.188-0.062-0.25-0.062-0.145 0.042-0.262 0.062-0.344 0.062-0.188 0-0.301 0.031-0.344 0.094z" inkscape:connector-curvature="0"/>
      <path id="path126" style="fill-rule:evenodd;fill:#ffe357" d="m5.309 7.398c0.293 0 0.386-0.086 0.281-0.25-0.02-0.024-0.156-0.024-0.402 0-0.149 0.019-0.188 0.062-0.126 0.125 0.083 0.082 0.165 0.125 0.247 0.125z" inkscape:connector-curvature="0"/>
      <path id="path128" style="fill-rule:evenodd;fill:#d9ac0d" d="m20.348 8.831c0.148 0.043 0.281-0.043 0.406-0.25 0.125-0.187 0.168-0.351 0.125-0.5-0.043-0.101-0.125-0.176-0.25-0.215-0.125-0.023-0.238-0.054-0.344-0.093-0.164-0.063-0.457-0.012-0.875 0.156l-1.402 0.527 0.187 0.094c0.145 0.062 0.313 0.074 0.5 0.031 0.227-0.039 0.446-0.039 0.653 0 0.148 0.043 0.25 0.043 0.312 0 0.024-0.039 0.063-0.101 0.125-0.183 0.043-0.024 0.106 0.019 0.188 0.121 0.086 0.148 0.211 0.25 0.375 0.312z" inkscape:connector-curvature="0"/>
      <path id="path130" style="fill-rule:evenodd;fill:#d9ac0d" d="m19.508 6.991c0.019 0.188 0.207 0.258 0.558 0.219 0.336-0.043 0.555-0.113 0.657-0.219 0.105-0.105-0.063-0.207-0.5-0.312-0.02-0.043-0.27-0.207-0.75-0.5-0.289-0.082-0.59-0.125-0.903-0.125-0.207 0-0.425 0.054-0.656 0.156-0.25 0.105-0.32 0.156-0.219 0.156l0.625-0.093c0.106 0 0.313 0.093 0.625 0.281 0.02 0.019 0.157 0.094 0.403 0.219 0.086 0.042 0.136 0.113 0.16 0.218z" inkscape:connector-curvature="0"/>
      <path id="path132" style="fill-rule:evenodd;fill:#d9ac0d" d="m20.723 6.366c0.332 0.082 0.449-0.07 0.343-0.468-0.269-0.125-0.507-0.133-0.718-0.032l0.093 0.25c0.106 0.149 0.2 0.231 0.282 0.25z" inkscape:connector-curvature="0"/>
      <path id="path134" style="fill-rule:evenodd;fill:#d9ac0d" d="m18.008 5.773c0.23 0.125 0.406 0.117 0.531-0.032 0.106-0.144 0.082-0.277-0.062-0.402-0.106-0.086-0.188-0.125-0.25-0.125-0.102 0.019-0.239 0.031-0.407 0.031-0.375 0-0.312 0.176 0.188 0.528z" inkscape:connector-curvature="0"/>
      <path id="path136" style="fill-rule:evenodd;fill:#d9ac0d" d="m16.918 8.394c0.289 0.062 0.469 0.043 0.527-0.063 0.024-0.062 0.024-0.176 0-0.344-0.039-0.144-0.215-0.175-0.527-0.089-0.168 0.019-0.375 0.082-0.625 0.183-0.25 0.106-0.043 0.211 0.625 0.313z" inkscape:connector-curvature="0"/>
      <path id="path138" style="fill-rule:evenodd;fill:#d9ac0d" d="m21.598 7.741c0.289 0.039 0.414 0.008 0.375-0.093-0.149-0.149-0.25-0.262-0.313-0.344-0.062-0.086-0.117-0.117-0.156-0.094-0.063 0.039-0.188 0.063-0.375 0.063-0.25-0.024-0.293 0.039-0.125 0.187 0.187 0.145 0.387 0.238 0.594 0.281z" inkscape:connector-curvature="0"/>
      <path id="path140" style="fill-rule:evenodd;fill:#d9ac0d" d="m16.512 11.358c0.082 0.106 0.281 0.137 0.593 0.094 0.352-0.043 0.551-0.051 0.59-0.031 0.168 0.082 0.293-0.125 0.375-0.625 0.024-0.125 0.012-0.188-0.031-0.188-0.125-0.019-0.269-0.093-0.437-0.218-0.145-0.145-0.227-0.207-0.247-0.184-0.043 0.102-0.167 0.145-0.375 0.125-0.25-0.023-0.406-0.031-0.468-0.031-0.063 0.039-0.168 0.07-0.313 0.09-0.23-0.039-0.355-0.059-0.375-0.059-0.019 0-0.012 0.133 0.031 0.402 0.063 0.336 0.168 0.52 0.313 0.563 0.082 0.019 0.199 0.043 0.344 0.062z" inkscape:connector-curvature="0"/>
      <path id="path142" style="fill-rule:evenodd;fill:#d9ac0d" d="m15.73 7.366c0.188 0.039 0.313-0.023 0.375-0.187 0.063-0.168 0-0.313-0.187-0.438-0.188-0.125-0.301-0.176-0.344-0.156l-0.312 0.313c-0.082 0.082-0.082 0.175 0 0.281 0.086 0.101 0.242 0.164 0.468 0.187z" inkscape:connector-curvature="0"/>
      <path id="path144" style="fill-rule:evenodd;fill:#d9ac0d" d="m21.504 6.491c0.144 0.356 0.25 0.574 0.312 0.657 0.063 0.144 0.157 0.218 0.282 0.218 0.039 0 0.351-0.074 0.933-0.218 0.063-0.024 0.239 0.039 0.531 0.187l0.126-0.219c0.124-0.125 0.226-0.144 0.312-0.062l0.219-0.156c0.144-0.125 0.226-0.25 0.25-0.375 0.019-0.188-0.024-0.395-0.125-0.625l0.402-0.094c0.293-0.063 0.492-0.145 0.594-0.25 0.125-0.125 0.117-0.281-0.031-0.469-0.145-0.164-0.344-0.301-0.59-0.402-0.375-0.024-0.606-0.094-0.688-0.219-0.086-0.149-0.511-0.274-1.281-0.375-0.188-0.02-0.363 0.082-0.527 0.312-0.125 0.207-0.211 0.313-0.25 0.313-0.418-0.149-0.77-0.219-1.063-0.219l-1.34 0.063c-0.398 0.019-0.718-0.086-0.968-0.313l-0.219-0.344c-0.395-0.187-0.758-0.281-1.09-0.281-0.355 0.02-0.617 0.02-0.781 0-0.293-0.019-0.543-0.094-0.75-0.219-0.27-0.164-0.508-0.269-0.719-0.312-0.246-0.039-0.633-0.051-1.152-0.027-0.438 0.019-0.719 0.101-0.844 0.246l-0.063 0.25-0.996-0.032c-0.23 0-0.406 0.086-0.531 0.25l-0.094 0.282c-0.312-0.043-0.57-0.043-0.781 0-0.187 0.168-0.426 0.269-0.715 0.312h-0.187c0.082 0.082 0.238 0.094 0.465 0.031 0.293-0.043 0.5-0.062 0.625-0.062 0.023 0.019 0.105 0.043 0.25 0.062 0.519 0.207 0.8 0.239 0.843 0.094 0.082-0.168 0.301-0.312 0.657-0.437 0.183-0.043 0.55-0.063 1.089-0.063 0.043-0.019 0.2-0.105 0.469-0.25 0.207-0.101 0.445-0.144 0.719-0.125 0.226 0.043 0.433 0.18 0.621 0.406l0.156 0.125c0.149 0.063 0.262 0.075 0.344 0.032 0.25-0.125 0.562-0.157 0.937-0.094l0.809 0.281c0.043 0 0.242 0.137 0.594 0.406 0.375 0.25 0.676 0.387 0.906 0.407 0.188 0.019 0.406 0.039 0.656 0.062 0.184 0.02 0.34 0.07 0.465 0.156 0.211 0.125 0.395 0.239 0.563 0.344 0.168 0.063 0.281 0.125 0.343 0.188 0.082 0.082 0.188 0.269 0.313 0.558z" inkscape:connector-curvature="0"/>
      <path id="path146" style="fill-rule:evenodd;fill:#f0c426" d="m23.469 5.804c0.582-0.145 0.851-0.403 0.812-0.778-0.023-0.125-0.086-0.199-0.187-0.218-0.207 0-0.344-0.012-0.406-0.032-0.438-0.125-0.75-0.199-0.934-0.218-0.188-0.02-0.313 0.011-0.375 0.093-0.063 0.145-0.137 0.27-0.219 0.375-0.062 0.106-0.023 0.188 0.125 0.25 0.227 0.082 0.375 0.164 0.438 0.25 0.144 0.247 0.39 0.34 0.746 0.278z" inkscape:connector-curvature="0"/>
      <path id="path148" style="fill-rule:evenodd;fill:#ffe357" d="m23.25 5.648c0.125 0.023 0.262-0.02 0.406-0.125 0.168-0.083 0.231-0.165 0.188-0.247-0.043-0.086-0.219-0.125-0.532-0.125-0.167 0-0.257 0.008-0.281 0.032-0.039 0.019-0.082 0.093-0.125 0.218-0.062 0.122-0.051 0.196 0.032 0.215 0.042 0.024 0.148 0.032 0.312 0.032z" inkscape:connector-curvature="0"/>
      <path id="path150" style="fill-rule:evenodd;fill:#000000;fill-opacity:0.349" d="m22.918 5.89-2.281 2.199-6.438-0.399-3.961-3.921c-2.933 0.082-5.347 0.574-7.238 1.48-0.16 0.16-0.348 0.309-0.562 0.441-2.133 1.602-2.868 3.188-2.2 4.762 0.641 1.52 2.453 2.571 5.442 3.16 3.039 0.586 6.371 0.532 10-0.16 3.679-0.722 6.558-1.883 8.64-3.48 0.637-0.453 1.145-0.895 1.52-1.321l0.199 0.039c0.945-0.507 1.266-1.164 0.961-1.96-1.707-0.747-3.07-1.028-4.082-0.84z" inkscape:connector-curvature="0"/>
    </g>
    <g id="g152">
      <g id="g154" clip-path="url(#clipPath156)">
        <g id="g160" clip-path="url(#clipPath162)">
          <g id="g166" transform="translate(0 -.40719)">
            <g id="g204">
              <g id="g206" clip-path="url(#clipPath170)">
                <g id="g208">
                  <g id="g210">
                    <g id="g212">
                      <g id="g214">
                        <path id="path216" style="fill-rule:evenodd;fill:url(#linearGradient178)" d="m24.008 14.445c2.39-1.144 3.422-2.539 3.097-4.187-0.324-1.653-1.855-3.055-4.593-4.215-2.735-1.16-5.977-1.754-9.719-1.777-3.746-0.02-6.848 0.543-9.313 1.699-2.464 1.152-3.535 2.555-3.207 4.203 0.325 1.648 1.911 3.047 4.762 4.199 2.852 1.172 6.129 1.774 9.828 1.793 3.727 0.004 6.774-0.57 9.145-1.715z" inkscape:connector-curvature="0"/>
                      </g>
                    </g>
                  </g>
                  <g id="g218">
                    <g id="g220">
                      <g id="g222">
                        <path id="path224" style="fill-rule:evenodd;fill:url(#linearGradient188)" d="m24.004 14.57c2.391-1.039 3.422-2.312 3.094-3.816-0.309-1.5-1.887-2.789-4.739-3.856-2.851-1.07-6.14-1.613-9.863-1.636-3.703-0.024-6.75 0.496-9.141 1.558-2.386 1.059-3.421 2.344-3.089 3.844 0.324 1.504 1.914 2.793 4.769 3.859 2.852 1.071 6.129 1.614 9.832 1.637 3.723 0.004 6.77-0.527 9.137-1.59z" inkscape:connector-curvature="0"/>
                      </g>
                    </g>
                  </g>
                  <g id="g226">
                    <g id="g228">
                      <g id="g230">
                        <path id="path232" style="fill-rule:evenodd;fill:url(#linearGradient198)" d="m23.199 14.184c2.18-0.879 3.121-1.946 2.832-3.196-0.308-1.254-1.769-2.332-4.375-3.23-2.625-0.899-5.633-1.356-9.023-1.371-3.391-0.016-6.188 0.422-8.387 1.32-2.18 0.879-3.121 1.945-2.832 3.195 0.313 1.254 1.77 2.332 4.375 3.231 2.625 0.898 5.637 1.355 9.023 1.371 3.391 0.016 6.188-0.422 8.387-1.32z" inkscape:connector-curvature="0"/>
                      </g>
                    </g>
                  </g>
                  <path id="path234" style="fill-rule:evenodd;fill:#aeb3b3" d="m23.359 12.25 1.161-0.352c0.207-0.062 0.324-0.183 0.347-0.371 0.067-0.164 0.215-0.339 0.445-0.523 0.129-0.078 0.192-0.16 0.192-0.246 0.047-0.145 0.019-0.406-0.078-0.781-0.098-0.375-0.528-0.778-1.289-1.207-0.559-0.301-1.114-0.54-1.672-0.715-0.352-0.133-0.582-0.219-0.684-0.262-0.125-0.023-0.363-0.039-0.719-0.043-0.269-0.008-0.507-0.051-0.714-0.141-0.184-0.062-0.391-0.097-0.621-0.101-0.289-0.008-0.633-0.094-1.024-0.27-0.621-0.258-0.961-0.398-1.023-0.422-0.27-0.089-0.52-0.113-0.746-0.074-0.317 0.078-0.641 0.145-0.973 0.199-0.375 0.059-0.731 0.063-1.063 0.016-0.433-0.031-0.757-0.047-0.964-0.051-0.356 0.016-0.582 0.043-0.688 0.082-0.105 0.063-0.219 0.133-0.348 0.215-0.168 0.121-0.273 0.192-0.316 0.211-0.043 0.02-0.144 0.039-0.312 0.055-0.586 0.261-0.965 0.39-1.129 0.386-0.168 0-0.375 0.067-0.629 0.207-0.25 0.122-0.68 0.176-1.282 0.168-0.457-0.007-0.687 0.09-0.691 0.301-0.004 0.145-0.246 0.266-0.723 0.36-0.293 0.058-0.578 0.293-0.855 0.703l-0.5-0.071c-0.164-0.085-0.258-0.128-0.277-0.128-0.02-0.02-0.125-0.024-0.313-0.004-0.394-0.008-0.746-0.055-1.059-0.145-0.414-0.109-0.714-0.043-0.906 0.203-0.129 0.145-0.441 0.262-0.945 0.356-0.188 0.062-0.242 0.175-0.16 0.343 0.082 0.125 0.164 0.211 0.246 0.254l2.238 0.508c-0.355 0.098-0.672 0.145-0.941 0.137-0.25-0.024-0.446-0.039-0.59-0.039-0.231-0.028-0.457-0.008-0.688 0.051-0.23 0.058-0.066 0.257 0.489 0.601 0.472 0.297 0.812 0.481 1.019 0.547 1.348 0.211 2.457 0.477 3.324 0.805 0.891 0.328 6.043 0.074 15.461-0.762z" inkscape:connector-curvature="0"/>
                  <path id="path236" style="fill-rule:evenodd;fill:#ffd740" d="m19.113 15.859 0.035-0.093c0.04-0.039 0.094-0.059 0.157-0.059 0.187 0.004 0.398-0.172 0.633-0.519 0.085-0.126 0.16-0.258 0.226-0.403 0.063-0.125 0.188-0.195 0.375-0.211 0.27-0.015 0.492-0.125 0.664-0.332l0.067-0.406c0.046-0.246 0.101-0.383 0.164-0.402 0.23-0.036 0.406-0.098 0.535-0.176l0.57-0.461 0.469-0.082c0.355-0.102 0.605-0.219 0.754-0.363 0.273-0.266 0.312-0.547 0.109-0.84l0.219-0.153c0.148-0.121 0.234-0.246 0.258-0.371 0.023-0.187-0.016-0.394-0.114-0.625l0.407-0.09c0.293-0.054 0.492-0.136 0.597-0.238 0.125-0.121 0.117-0.277-0.023-0.469-0.145-0.168-0.34-0.304-0.586-0.414-0.375-0.027-0.602-0.105-0.684-0.23-0.078-0.149-0.504-0.281-1.273-0.399-0.184-0.023-0.363 0.079-0.535 0.305-0.129 0.207-0.211 0.309-0.254 0.309-0.414-0.153-0.766-0.235-1.059-0.239l-1.34 0.04c-0.394 0.015-0.714-0.094-0.961-0.329l-0.214-0.347c-0.391-0.192-0.754-0.293-1.086-0.301-0.356 0.016-0.614 0.012-0.782-0.012-0.289-0.027-0.539-0.101-0.742-0.23-0.269-0.172-0.508-0.278-0.715-0.324-0.246-0.047-0.632-0.063-1.152-0.051-0.437 0.011-0.719 0.09-0.848 0.234l-0.066 0.25-0.996-0.051c-0.231-0.004-0.406 0.078-0.535 0.243l-0.098 0.277c-0.312-0.047-0.57-0.051-0.781-0.012-0.188 0.164-0.43 0.262-0.723 0.297-0.144 0.039-0.289 0.016-0.433-0.066-0.188-0.09-0.364-0.133-0.528-0.137-0.23-0.024-0.398 0.066-0.504 0.273l-0.101 0.371c-0.043 0.145-0.199 0.184-0.469 0.118-0.125-0.043-0.273-0.016-0.441 0.086-0.168 0.121-0.286 0.257-0.348 0.402-0.066 0.121-0.035 0.238 0.086 0.344 0.144 0.105 0.258 0.203 0.34 0.285 0.101 0.129 0.078 0.262-0.071 0.406-0.148 0.141-0.316 0.203-0.504 0.176-0.25-0.024-0.48 0.066-0.691 0.269-0.062 0.063-0.156 0.09-0.281 0.09l-0.188-0.004c-0.226-0.047-0.5-0.019-0.812 0.078-0.313 0.102-0.656 0.086-1.028-0.046-0.312-0.153-0.558-0.207-0.746-0.168-0.148 0.015-0.148 0.121-0.007 0.312l0.246 0.313c-0.231 0.019-0.379 0.128-0.442 0.336-0.023 0.125 0.067 0.242 0.274 0.347l0.34 0.133c-0.129 0.184-0.09 0.395 0.113 0.625 0.207 0.234 0.535 0.414 0.992 0.547l0.367 0.414c0.223 0.254 0.492 0.352 0.805 0.293 0.058 0.129 0.172 0.18 0.34 0.164 0.211-0.039 0.324-0.059 0.344-0.059 0.144 0.067 0.25 0.141 0.308 0.227l0.18 0.406c0.164 0.254 0.328 0.391 0.492 0.414 0.144 0.024 0.281-0.066 0.41-0.273 0.149-0.184 0.246-0.278 0.285-0.274 0.106 0 0.321 0.192 0.649 0.571 0.039 0.043 0.109 0.136 0.211 0.285 0.062 0.148 0.195 0.285 0.398 0.414 0.371 0.254 0.516 0.359 0.434 0.316l0.175 0.535c0.102 0.149 0.403 0.27 0.899 0.36l0.277 0.191c0.227 0.149 0.453 0.239 0.684 0.262 0.375 0.027 0.637-0.063 0.785-0.266l0.246 0.129c0.227 0.086 0.496 0.153 0.809 0.199 0.351 0.028 0.57 0.032 0.656 0.012 0.062-0.019 0.156-0.101 0.285-0.246 0.106-0.082 0.262-0.109 0.469-0.086l0.558 0.106c0.207 0.043 0.344 0.058 0.407 0.039 0.125-0.02 0.324-0.11 0.597-0.274 0.211-0.14 0.41-0.336 0.602-0.582 0.191-0.226 0.359-0.379 0.508-0.457 0.293-0.183 0.66-0.281 1.097-0.293 0.231-0.082 0.317-0.191 0.254-0.34z" inkscape:connector-curvature="0"/>
                  <path id="path238" style="fill-rule:evenodd;fill:#f0c426" d="m7.602 10.355c-0.063-0.023-0.133-0.054-0.215-0.097 0.101 0.129 0.078 0.262-0.071 0.406-0.148 0.141-0.316 0.203-0.504 0.176-0.25-0.024-0.48 0.066-0.691 0.269-0.062 0.063-0.156 0.09-0.281 0.09l-0.188-0.004c-0.226-0.047-0.5-0.019-0.812 0.078-0.313 0.102-0.656 0.086-1.028-0.046-0.312-0.153-0.558-0.207-0.746-0.168-0.148 0.015-0.148 0.121-0.007 0.312l0.246 0.313c-0.231 0.019-0.379 0.128-0.442 0.336-0.023 0.105 0.078 0.23 0.305 0.382-0.039-0.273 0.047-0.418 0.258-0.433 0.226-0.016 0.418-0.098 0.566-0.239 0.082-0.019 0.145-0.019 0.184 0 0.082 0.043 0.176 0.11 0.281 0.192 0.102 0.086 0.203 0.18 0.305 0.289 0.082 0.043 0.176 0.035 0.281-0.027 0.062-0.039 0.125-0.114 0.191-0.215 0.063-0.082 0.149-0.133 0.25-0.153 0.086-0.019 0.2-0.015 0.344 0.008 0.106 0.02 0.231 0.004 0.375-0.058 0.106-0.039 0.199-0.121 0.285-0.243 0.043-0.062 0.129-0.07 0.25-0.027 0.289 0.109 0.489 0.113 0.594 0.008 0.086-0.078 0.254-0.129 0.504-0.145 0.269-0.164 0.328-0.339 0.164-0.527l-0.398-0.477zm11.511 5.504 0.035-0.093c0.04-0.039 0.094-0.059 0.157-0.059 0.187 0.004 0.398-0.172 0.633-0.519 0.085-0.126 0.16-0.258 0.226-0.403 0.063-0.125 0.188-0.195 0.375-0.211 0.27-0.015 0.492-0.125 0.664-0.332l0.067-0.406c0.046-0.246 0.101-0.383 0.164-0.402 0.23-0.036 0.406-0.098 0.535-0.176l0.57-0.461 0.469-0.082c0.355-0.102 0.605-0.219 0.754-0.363 0.273-0.266 0.312-0.547 0.109-0.84l0.219-0.153c0.148-0.121 0.234-0.246 0.258-0.371 0.023-0.187-0.016-0.394-0.114-0.625l0.407-0.09c0.293-0.054 0.492-0.136 0.597-0.238 0.149-0.14 0.129-0.32-0.054-0.531l-0.723 0.269c-0.231 0.079-0.469 0.125-0.719 0.145-0.168 0.016-0.312 0.047-0.437 0.086l-0.16 0.09c0 0.144-0.118 0.215-0.348 0.211-0.106 0.101-0.301 0.109-0.59 0.023-0.168-0.047-0.258-0.121-0.277-0.223-0.02-0.167-0.028-0.261-0.028-0.281 0.086-0.164-0.004-0.363-0.269-0.597l-0.153-0.192c-0.25-0.086-0.468-0.133-0.656-0.137l-1.34 0.04c-0.394 0.015-0.714-0.094-0.961-0.329l-0.214-0.347c-0.391-0.192-0.754-0.293-1.086-0.297-0.356 0.012-0.614 0.008-0.782-0.016-0.289-0.023-0.539-0.101-0.742-0.23-0.269-0.172-0.508-0.278-0.715-0.324-0.246-0.047-0.632-0.063-1.152-0.051-0.437 0.011-0.719 0.094-0.848 0.234l-0.066 0.25-0.996-0.051c-0.231-0.004-0.406 0.078-0.535 0.243l-0.098 0.277c-0.312-0.047-0.57-0.051-0.781-0.012l-0.125 0.027-0.567 0.274-0.031-0.004c-0.148 0.039-0.293 0.016-0.433-0.066-0.188-0.09-0.364-0.133-0.532-0.137-0.226-0.024-0.394 0.066-0.504 0.273l-0.097 0.371c-0.047 0.145-0.203 0.184-0.473 0.118-0.121-0.043-0.269-0.016-0.437 0.086-0.168 0.121-0.286 0.257-0.348 0.402-0.066 0.121-0.035 0.238 0.086 0.344 0.105 0.078 0.191 0.152 0.262 0.222-0.067-0.082-0.09-0.156-0.075-0.218 0.024-0.086 0.043-0.157 0.067-0.219 0.019-0.039 0.086-0.082 0.187-0.121 0.063-0.02 0.157 0.004 0.282 0.066 0.101 0.067 0.187 0.078 0.25 0.035 0.21-0.16 0.421-0.304 0.628-0.426 0.168-0.078 0.297-0.148 0.379-0.21 0.043-0.02 0.145-0.02 0.313 0.003 0.269 0.028 0.445 0.02 0.531-0.019 0.289 0.004 0.52-0.024 0.688-0.082 0.062-0.02 0.144 0 0.25 0.066l0.179 0.344c0.039 0.086-0.066 0.188-0.316 0.309l0.437-0.055c0.938-0.191 1.426-0.184 1.465 0.023l-0.004 0.157c0.024 0.043 0.075 0.097 0.157 0.16 0.039 0.019 0.07 0.105 0.089 0.25-0.004 0.125 0.153 0.191 0.465 0.195 0.27 0.004 0.528 0 0.778-0.015 0.168-0.02 0.324 0.015 0.468 0.101 0.039 0.02 0.207 0.074 0.496 0.164 0.145 0.043 0.215 0.129 0.215 0.254-0.133 0.371-0.156 0.598-0.074 0.684 0.121 0.129 0.16 0.285 0.117 0.468-0.023 0.086-0.097 0.207-0.226 0.371-0.125 0.125-0.18 0.247-0.164 0.372l0.054 0.503-0.312-0.007c-0.313 0.078-0.512 0.179-0.598 0.3-0.043 0.125-0.086 0.219-0.129 0.282-0.086 0.101-0.285 0.16-0.597 0.175l-0.653-0.011c-0.105 0-0.211 0.078-0.316 0.246-0.258 0.41-0.301 0.617-0.137 0.621 0.145 0 0.406-0.035 0.781-0.113l0.621 0.23c0.125 0.043 0.29 0.067 0.5 0.07 0.207-0.015 0.321-0.054 0.344-0.117 0.024-0.062 0.117-0.144 0.285-0.246 0.188-0.101 0.317-0.152 0.379-0.148 0.227 0.004 0.453 0.09 0.68 0.258 0.082 0.066 0.145 0.191 0.18 0.378 0.039 0.149 0.113 0.223 0.215 0.223 0.21 0.004 0.531-0.062 0.972-0.203 0 0.086 0.008 0.156 0.028 0.219 0.058 0.168 0.16 0.254 0.308 0.258 0.125 0-0.066 0.113-0.57 0.332-0.543 0.261-0.797 0.402-0.754 0.425 0.062 0.063-0.074 0.09-0.406 0.086-0.336-0.008-0.52-0.043-0.563-0.105-0.039-0.063-0.164-0.063-0.375-0.004-0.187 0.058-0.25 0.129-0.187 0.215 0.039 0.039 0.254 0.148 0.648 0.32 0.246 0.109 0.391 0.227 0.43 0.352 0.019 0.043-0.012 0.062-0.094 0.062l0.617 0.289 0.41-0.211c0.211-0.14 0.41-0.336 0.602-0.582 0.191-0.226 0.363-0.379 0.508-0.457 0.297-0.183 0.66-0.281 1.097-0.293 0.231-0.082 0.317-0.191 0.254-0.34z" inkscape:connector-curvature="0"/>
                  <path id="path240" style="fill-rule:evenodd;fill:#e3b924" d="m19.477 14.742c0.105-0.101 0.168-0.172 0.191-0.215 0.043-0.062 0.062-0.113 0.062-0.156 0.024 0 0.075 0.012 0.157 0.035 0.062 0 0.113 0.043 0.156 0.129 0.039 0.063 0.102 0.106 0.184 0.125l0.312-0.086c0.27-0.015 0.492-0.129 0.66-0.332l0.071-0.406c0.046-0.25 0.101-0.383 0.164-0.402l0.156-0.059h-0.031c-0.082-0.148-0.098-0.348-0.051-0.594 0.047-0.25 0.121-0.426 0.226-0.527 0.082-0.082 0.219-0.133 0.407-0.149 0.187-0.019 0.312-0.046 0.379-0.089 0.062-0.039 0.199-0.098 0.406-0.18 0.148-0.059 0.211-0.109 0.191-0.152 0-0.039-0.031-0.106-0.09-0.188-0.019-0.086 0.032-0.144 0.157-0.184 0.378-0.16 0.57-0.292 0.57-0.398 0-0.019 0.062-0.113 0.191-0.277 0.106-0.145 0.11-0.235 0.004-0.282-0.164-0.043-0.437 0.067-0.816 0.333-0.063 0.039-0.313 0.054-0.75 0.046-0.395-0.027-0.59-0.125-0.586-0.289 0-0.043 0.023-0.136 0.066-0.281 0.024-0.102 0.024-0.176 0.004-0.219-0.082-0.144-0.109-0.312-0.086-0.5 0.004-0.14 0.063-0.269 0.18-0.386l-0.078 0.078c-0.414-0.153-0.766-0.235-1.059-0.239l-1.344 0.04c-0.394 0.015-0.714-0.094-0.96-0.329l-0.211-0.347c-0.391-0.192-0.754-0.293-1.086-0.301-0.356 0.016-0.618 0.012-0.782-0.012-0.289-0.027-0.539-0.101-0.746-0.23-0.308-0.215-0.629-0.332-0.961-0.36-0.125 0.082-0.097 0.215 0.086 0.407 0.106 0.105 0.114 0.261 0.024 0.468-0.086 0.207-0.078 0.332 0.027 0.375 0.348 0.192 0.555 0.407 0.613 0.633 0.098 0.317 0.262 0.473 0.489 0.477 0.062 0.004 0.113 0.086 0.152 0.254 0.059 0.187 0.121 0.312 0.18 0.379 0.043 0.043 0.113 0.093 0.218 0.16 0.059 0.043 0.09 0.093 0.09 0.156-0.004 0.227-0.058 0.383-0.164 0.465-0.125 0.082-0.211 0.14-0.254 0.183-0.105 0.082-0.129 0.215-0.07 0.403l0.211 0.597-0.227 0.278c-0.203-0.149-0.328-0.11-0.375 0.117-0.019 0.043-0.074 0.156-0.16 0.344-0.043 0.082-0.023 0.144 0.059 0.187s0.176 0.086 0.277 0.129c0.063 0.043 0.07 0.125 0.028 0.25l-0.227 0.465-0.281 0.148-0.285 0.309c-0.043 0-0.063 0.008-0.063 0.031-0.043 0.039-0.016 0.094 0.09 0.156 0.101 0.043 0.246 0.204 0.426 0.477 0.164 0.254 0.277 0.391 0.34 0.41 0.082 0.004 0.207 0.035 0.371 0.102 0.187 0.023 0.375 0.027 0.562 0.008l0.469-0.055c0.039 0.004 0.156 0.023 0.34 0.07 0.062 0 0.136-0.039 0.222-0.121 0.125-0.164 0.254-0.297 0.379-0.398 0.024-0.02 0.035-0.137 0.039-0.344 0-0.106 0.098-0.152 0.282-0.152l0.875 0.015z" inkscape:connector-curvature="0"/>
                  <path id="path242" style="fill-rule:evenodd;fill:#f0c426" d="m19.555 13.84c0.125-0.02 0.285-0.195 0.476-0.524 0.043-0.101-0.004-0.261-0.148-0.468-0.082-0.086-0.172-0.118-0.278-0.102-0.148 0.082-0.285 0.152-0.41 0.215-0.144 0.059-0.273 0.086-0.375 0.086-0.019 0-0.113-0.035-0.281-0.098-0.246-0.066-0.551-0.019-0.906 0.141-0.067 0.144-0.211 0.234-0.442 0.269-0.144 0.039-0.242 0.133-0.285 0.278-0.086 0.226-0.14 0.351-0.164 0.371-0.062 0.082-0.031 0.137 0.094 0.16 0.269 0.023 0.457 0.059 0.559 0.102 0.207 0.046 0.687-0.082 1.441-0.379 0.211-0.082 0.449-0.098 0.719-0.051z" inkscape:connector-curvature="0"/>
                  <path id="path244" style="fill-rule:evenodd;fill:#f0c426" d="m19.246 11.898c0.086-0.101 0.129-0.277 0.133-0.527 0.004-0.187-0.059-0.305-0.18-0.348-0.168-0.023-0.293-0.054-0.375-0.097-0.203-0.153-0.515-0.199-0.933-0.141-0.145 0.016-0.282 0.078-0.407 0.18-0.172 0.14-0.296 0.234-0.379 0.273-0.191 0.078-0.253 0.192-0.195 0.34 0.039 0.145 0.164 0.223 0.371 0.223 0.063 0.004 0.239 0.047 0.528 0.137 0.269 0.109 0.527 0.152 0.777 0.136 0.336-0.015 0.555-0.074 0.66-0.176z" inkscape:connector-curvature="0"/>
                  <path id="path246" style="fill-rule:evenodd;fill:#f0c426" d="m20.102 11.07c0.25 0.004 0.418-0.086 0.503-0.269 0.067-0.188 0.016-0.336-0.148-0.442-0.145-0.086-0.266-0.109-0.371-0.07-0.191 0.082-0.316 0.129-0.379 0.152-0.187 0.016-0.211 0.129-0.066 0.34 0.121 0.192 0.273 0.285 0.461 0.289z" inkscape:connector-curvature="0"/>
                  <path id="path248" style="fill-rule:evenodd;fill:#f0c426" d="m17.863 8.816c-0.121-0.25-0.48-0.382-1.086-0.39-0.25-0.008-0.406 0.012-0.468 0.051-0.145 0.062-0.282 0.113-0.407 0.152-0.254 0.055-0.254 0.211-0.011 0.465 0.168 0.129 0.472 0.383 0.925 0.765 0.204 0.172 0.332 0.079 0.379-0.273l0.473-0.305c0.168-0.101 0.254-0.183 0.254-0.246 0.019-0.039 0-0.113-0.059-0.219z" inkscape:connector-curvature="0"/>
                  <path id="path250" style="fill-rule:evenodd;fill:#f0c426" d="m20.891 14.145c0.191-0.102 0.152-0.25-0.118-0.442-0.082-0.062-0.175-0.043-0.281 0.059-0.086 0.144-0.16 0.246-0.222 0.308-0.106 0.102-0.067 0.153 0.121 0.157 0.187 0.023 0.355-0.004 0.5-0.082z" inkscape:connector-curvature="0"/>
                  <path id="path252" style="fill-rule:evenodd;fill:#ffe357" d="m16.148 17.773 0.004-0.156c-0.023-0.043-0.082-0.082-0.187-0.129-0.145-0.043-0.238-0.086-0.277-0.129l-0.032-0.125c-0.058-0.105-0.183-0.168-0.371-0.191-0.164-0.066-0.265-0.121-0.308-0.164-0.102-0.106-0.289-0.16-0.559-0.164-0.125 0.019-0.219 0.039-0.281 0.058-0.063-0.003-0.157-0.035-0.282-0.101-0.101-0.063-0.027-0.133 0.223-0.215l0.473-0.113c0.086-0.145 0.23-0.246 0.441-0.305 0.063 0 0.074-0.051 0.035-0.156-0.023-0.063 0.063-0.071 0.25-0.028 0.145 0.043 0.27 0.016 0.375-0.085 0.082-0.082 0.129-0.176 0.129-0.282 0-0.062-0.031-0.074-0.093-0.031-0.083 0.02-0.145 0.016-0.188-0.004l-0.152-0.191c-0.039-0.082-0.09-0.114-0.153-0.094l-0.187-0.004c-0.024 0-0.063-0.094-0.121-0.285-0.039-0.125-0.114-0.156-0.215-0.094-0.149 0.078-0.277 0.18-0.383 0.305-0.23 0.265-0.391 0.43-0.477 0.488-0.167 0.125-0.355 0.203-0.566 0.242-0.101 0.02-0.301-0.008-0.59-0.074-0.226-0.043-0.375-0.047-0.437-0.008-0.145 0.082-0.489 0.086-1.028 0.016-0.086 0-0.273 0.066-0.566 0.207-0.105 0.062-0.211 0.059-0.313-0.004-0.121-0.105-0.226-0.184-0.308-0.223-0.082-0.043-0.102-0.16-0.055-0.347 0.043-0.227 0.047-0.371 0.008-0.434-0.164-0.172-0.246-0.371-0.242-0.598 0.004-0.062 0.035-0.207 0.101-0.433 0.047-0.211-0.265-0.309-0.929-0.297-0.129 0.121-0.297 0.199-0.504 0.238-0.231 0.059-0.324 0.215-0.289 0.465 0 0.125-0.149 0.227-0.442 0.305-0.144 0.058-0.289-0.008-0.433-0.195-0.102-0.129-0.235-0.172-0.403-0.133-0.086 0.019-0.156 0.019-0.218-0.004-0.188-0.086-0.289-0.129-0.309-0.129-0.312-0.09-0.613-0.156-0.902-0.203l-0.653-0.106 0.215 0.223c0.223 0.254 0.492 0.352 0.805 0.293 0.058 0.129 0.172 0.18 0.34 0.164 0.211-0.039 0.324-0.059 0.344-0.059 0.144 0.067 0.25 0.141 0.308 0.227l0.18 0.406c0.164 0.254 0.328 0.391 0.492 0.414 0.144 0.024 0.281-0.066 0.41-0.273 0.149-0.184 0.246-0.278 0.285-0.274 0.106 0 0.321 0.192 0.649 0.571 0.039 0.043 0.109 0.136 0.211 0.285 0.062 0.148 0.195 0.285 0.398 0.414 0.371 0.254 0.516 0.359 0.434 0.316l0.175 0.535c0.102 0.149 0.403 0.27 0.899 0.36l0.277 0.191c0.227 0.149 0.453 0.239 0.684 0.262 0.375 0.027 0.637-0.063 0.785-0.266l0.246 0.129c0.227 0.086 0.496 0.153 0.809 0.199 0.351 0.028 0.57 0.032 0.656 0.012 0.062-0.019 0.156-0.101 0.285-0.246 0.106-0.082 0.262-0.109 0.469-0.086l0.558 0.106c0.227 0.046 0.395 0.046 0.5 0.007z" inkscape:connector-curvature="0"/>
                  <path id="path254" style="fill-rule:evenodd;fill:#ffe357" d="m6.609 13.645c0.043 0.003 0.145 0.046 0.309 0.132 0.187 0.086 0.352 0.141 0.496 0.164 0.168 0.024 0.262 0.004 0.281-0.058 0.067-0.207 0.11-0.321 0.133-0.34 0.149-0.164 0.223-0.266 0.223-0.309 0.043-0.082 0.054-0.207 0.039-0.375-0.02-0.144-0.082-0.218-0.184-0.218-0.125-0.024-0.207-0.059-0.25-0.102-0.101-0.144-0.289-0.129-0.562 0.055-0.125 0.082-0.324 0.109-0.594 0.082-0.207-0.043-0.508-0.039-0.906 0.015-0.25 0.079-0.426 0.118-0.532 0.118-0.332-0.008-0.539 0.043-0.624 0.144-0.063 0.039-0.036 0.125 0.089 0.25 0.102 0.106 0.196 0.16 0.278 0.164 0.437 0.004 0.757 0.043 0.965 0.11 0.351 0.109 0.632 0.164 0.839 0.168z" inkscape:connector-curvature="0"/>
                  <path id="path256" style="fill-rule:evenodd;fill:#ffe357" d="m12.871 14.285c0.082-0.039 0.332-0.078 0.75-0.113 0.207-0.035 0.313-0.11 0.317-0.211 0.019-0.063 0.023-0.188 0.003-0.375 0.067-0.188 0.036-0.258-0.089-0.219 0-0.023-0.09-0.074-0.278-0.164-0.019-0.019-0.164-0.031-0.437-0.035-0.332-0.008-0.61-0.031-0.84-0.078-0.27-0.067-0.453-0.152-0.555-0.262-0.082-0.144-0.164-0.269-0.246-0.375-0.141-0.172-0.441-0.238-0.898-0.203-0.52-0.031-0.821-0.047-0.907-0.051-0.207 0-0.437 0.078-0.687 0.239-0.109 0.105 0.035 0.304 0.426 0.601 0.082 0.043 0.183 0.117 0.308 0.223 0.121 0.086 0.266 0.133 0.434 0.133l0.437-0.024c0.207 0.004 0.344 0.027 0.403 0.07 0.125 0.086 0.164 0.2 0.121 0.344 0.015 0.168 0.035 0.305 0.055 0.41 0 0.02 0.082 0.145 0.242 0.375 0.308 0.235 0.566 0.364 0.773 0.391 0.168 0 0.231-0.02 0.188-0.059-0.082-0.066-0.114-0.105-0.09-0.129 0.191-0.285 0.383-0.449 0.57-0.488z" inkscape:connector-curvature="0"/>
                  <path id="path258" style="fill-rule:evenodd;fill:#ffe357" d="m14.637 13.066c0.062 0.043 0.105 0.106 0.121 0.192 0.023 0.039 0.082 0.074 0.187 0.097 0.102 0.02 0.157 0 0.157-0.062 0.023-0.063 0.035-0.207 0.039-0.434l0.07-0.437c0-0.039 0.035-0.125 0.098-0.246 0.066-0.125 0.086-0.25 0.07-0.375 0-0.145-0.051-0.188-0.156-0.125-0.125 0.078-0.2 0.129-0.219 0.152l-1.281 0.07c-0.356 0.079-0.485 0.25-0.383 0.524 0.019 0.105 0.246 0.152 0.683 0.137 0.125 0.062 0.329 0.234 0.614 0.507z" inkscape:connector-curvature="0"/>
                  <path id="path260" style="fill-rule:evenodd;fill:#ffe357" d="m10.75 11.441c0.211 0.055 0.383 0.047 0.52-0.031 0.054-0.051 0.148-0.183 0.285-0.394 0.086-0.133 0.058-0.215-0.075-0.243-0.238-0.031-0.382-0.085-0.437-0.168-0.051-0.105-0.145-0.175-0.277-0.203-0.133-0.031-0.25-0.058-0.356-0.086-0.16-0.058-0.457 0.032-0.887 0.262-0.398 0.024-0.695 0.082-0.882 0.188-0.348 0.125-0.164 0.277 0.55 0.449 0.137 0 0.403-0.008 0.801-0.027 0.082-0.024 0.188-0.012 0.32 0.046 0.133 0.082 0.278 0.149 0.438 0.207z" inkscape:connector-curvature="0"/>
                  <path id="path262" style="fill-rule:evenodd;fill:#fff0a6" d="m6.609 13.645 0.188 0.003c0.039 0 0.082-0.019 0.125-0.058 0.043-0.082-0.039-0.199-0.242-0.348-0.063-0.043-0.125-0.066-0.188-0.066-0.144 0.039-0.281 0.058-0.406 0.054-0.188-0.003-0.301-0.015-0.344-0.035-0.039-0.043-0.121-0.086-0.246-0.129-0.164-0.086-0.312-0.078-0.437 0.024-0.125 0.078-0.149 0.152-0.067 0.215 0.063 0.066 0.164 0.097 0.309 0.101 0.105 0.02 0.304 0.035 0.594 0.039 0.207 0.004 0.332 0.059 0.371 0.164 0.144 0.043 0.257 0.055 0.343 0.036z" inkscape:connector-curvature="0"/>
                  <path id="path264" style="fill-rule:evenodd;fill:#fff0a6" d="m10.145 13.145c0.226 0.003 0.425-0.055 0.593-0.176 0.168-0.102 0.242-0.203 0.223-0.309-0.02-0.082-0.059-0.113-0.121-0.094l-0.25-0.007c-0.063-0.02-0.168 0-0.313 0.058-0.23 0.102-0.355 0.149-0.379 0.149-0.125 0.039-0.156 0.113-0.097 0.218 0.062 0.106 0.176 0.161 0.344 0.161z" inkscape:connector-curvature="0"/>
                  <path id="path266" style="fill-rule:evenodd;fill:#fff0a6" d="m11.863 14.734c0.102 0.043 0.293-0.14 0.571-0.55 0.171-0.352 0.187-0.559 0.043-0.625-0.082-0.043-0.25-0.067-0.497-0.071-0.105 0-0.265 0.102-0.476 0.305-0.149 0.145-0.223 0.309-0.227 0.496 0.02 0.082 0.082 0.156 0.184 0.223 0.207 0.105 0.34 0.179 0.402 0.222z" inkscape:connector-curvature="0"/>
                  <path id="path268" style="fill-rule:evenodd;fill:#fff0a6" d="m13.703 16.641c0.164 0 0.344-0.036 0.531-0.118 0.149-0.058 0.293-0.16 0.442-0.304 0.105-0.059 0.242-0.121 0.41-0.18 0.105-0.082 0.18-0.121 0.219-0.121l-0.153-0.219c-0.058-0.043-0.238-0.058-0.527-0.043-0.187-0.043-0.332-0.058-0.437-0.039-0.208 0.102-0.344 0.16-0.407 0.18-0.023 0.148-0.078 0.262-0.164 0.344-0.043 0.058-0.105 0.101-0.187 0.121-0.106 0.019-0.188 0.035-0.254 0.058l-0.594 0.239c-0.125 0.039-0.18 0.07-0.16 0.089 0.023 0 0.055 0.012 0.094 0.032 0.164 0.086 0.351 0.132 0.558 0.136 0.125 0 0.231-0.027 0.317-0.089 0.062-0.059 0.168-0.09 0.312-0.086z" inkscape:connector-curvature="0"/>
                  <path id="path270" style="fill-rule:evenodd;fill:#fff0a6" d="m14.562 17.527c0.208 0.004 0.376-0.023 0.5-0.086 0.126-0.058 0.157-0.109 0.094-0.152-0.039-0.043-0.101-0.066-0.183-0.066-0.125-0.024-0.231-0.047-0.313-0.067-0.101-0.043-0.176-0.054-0.219-0.035-0.187 0.059-0.293 0.086-0.312 0.086-0.188 0.02-0.207 0.082-0.067 0.188 0.168 0.085 0.333 0.128 0.5 0.132z" inkscape:connector-curvature="0"/>
                  <path id="path272" style="fill-rule:evenodd;fill:#fff0a6" d="m11.164 17.219c0.457 0.008 0.688-0.059 0.691-0.207 0-0.063-0.031-0.094-0.093-0.094-0.121-0.023-0.239-0.066-0.34-0.129-0.145-0.086-0.246-0.109-0.309-0.07-0.254 0.121-0.39 0.179-0.41 0.179-0.418 0.118-0.265 0.227 0.461 0.321z" inkscape:connector-curvature="0"/>
                  <path id="path274" style="fill-rule:evenodd;fill:#fff0a6" d="m11.816 17.543c0.289 0.066 0.434 0.039 0.438-0.086 0-0.105-0.102-0.156-0.309-0.16-0.168-0.004-0.261 0.035-0.285 0.117-0.019 0.063 0.031 0.106 0.156 0.129z" inkscape:connector-curvature="0"/>
                  <path id="path276" style="fill-rule:evenodd;fill:#fff0a6" d="m9.828 15.168 0.031-0.094c0.004-0.082-0.164-0.125-0.496-0.133l-0.285 0.215c-0.082 0.039-0.094 0.102-0.035 0.184 0.043 0.086 0.133 0.148 0.277 0.195 0 0.039 0.02 0.102 0.063 0.188 0.039 0.125 0.121 0.23 0.242 0.316 0.125 0.086 0.238 0.117 0.344 0.098 0.062 0 0.164-0.028 0.312-0.086 0.188-0.02 0.074-0.176-0.336-0.477l-0.117-0.406z" inkscape:connector-curvature="0"/>
                  <path id="path278" style="fill-rule:evenodd;fill:#fff0a6" d="m8.934 14.434c0.441-0.075 0.66-0.122 0.66-0.145 0-0.039-0.071-0.137-0.215-0.281-0.059-0.086-0.102-0.117-0.121-0.098l-0.156-0.004c-0.063 0-0.137 0.032-0.223 0.09-0.106 0.106-0.211 0.176-0.313 0.215-0.128 0.078-0.14 0.141-0.035 0.184 0.082 0.046 0.215 0.058 0.403 0.039z" inkscape:connector-curvature="0"/>
                  <path id="path280" style="fill-rule:evenodd;fill:#fff0a6" d="m10.703 11.375c0.125 0.004 0.231-0.059 0.317-0.18 0.105-0.125 0.14-0.215 0.097-0.281-0.039-0.039-0.25 0.02-0.625 0.18l-0.156 0.058c-0.086 0.039-0.098 0.082-0.035 0.125 0.082 0.043 0.219 0.075 0.402 0.098z" inkscape:connector-curvature="0"/>
                  <path id="path282" style="fill-rule:evenodd;fill:#ffd740" d="m6.672 11.742c0.129-0.121 0.203-0.328 0.23-0.617 0.004-0.25-0.043-0.449-0.144-0.598-0.145-0.168-0.32-0.297-0.524-0.382-0.062-0.083-0.156-0.129-0.281-0.129-0.144-0.024-0.25-0.036-0.308-0.036l-0.563-0.105c-0.102 0-0.227-0.078-0.371-0.223-0.082-0.105-0.258-0.164-0.527-0.168-0.082 0-0.157 0.032-0.219 0.09l-0.192 0.215c-0.105 0.082-0.335 0.121-0.687 0.113-0.27-0.004-0.406 0.067-0.41 0.211 0 0.043 0.078 0.199 0.242 0.473 0.121 0.129 0.34 0.195 0.652 0.199 0.188 0.004 0.313 0.027 0.371 0.07 0.063 0.083 0.125 0.145 0.184 0.188 0.063 0.023 0.145 0.109 0.246 0.254 0.102 0.148 0.195 0.242 0.277 0.285 0.164 0.066 0.29 0.152 0.368 0.258 0.23 0.004 0.449 0.07 0.652 0.199 0.25 0.172 0.582 0.07 1.004-0.297z" inkscape:connector-curvature="0"/>
                  <path id="path284" style="fill-rule:evenodd;fill:#f0c426" d="m6.672 11.742c0.129-0.121 0.203-0.328 0.23-0.617 0.004-0.25-0.043-0.449-0.144-0.598-0.145-0.168-0.32-0.297-0.524-0.382-0.062-0.083-0.156-0.129-0.281-0.129-0.144-0.024-0.25-0.036-0.308-0.036l-0.563-0.105c-0.102 0-0.227-0.078-0.371-0.223-0.082-0.105-0.258-0.164-0.527-0.168-0.082 0-0.157 0.032-0.219 0.09l-0.192 0.215-0.093 0.063c-0.106 0.039-0.301 0.058-0.594 0.05-0.27-0.004-0.406 0.067-0.41 0.211l0.031 0.063c0.164 0.004 0.332-0.012 0.5-0.051 0.27-0.102 0.492-0.148 0.656-0.145 0.082 0 0.301 0.055 0.653 0.165 0.207 0.066 0.363 0.132 0.464 0.195 0.02 0.023 0.075 0.035 0.157 0.035l0.375 0.008c0.101 0 0.156 0.031 0.152 0.094-0.023 0.082-0.449 0.039-1.277-0.129-0.821-0.164-1.016-0.172-0.575-0.028 0.438 0.141 0.942 0.297 1.504 0.465 0.559 0.172 0.829 0.281 0.805 0.324l-0.156 0.153c-0.067 0.062-0.086 0.125-0.067 0.187 0.04 0.086 0.059 0.137 0.059 0.156 0.02 0.063 0.008 0.118-0.035 0.157l-0.254 0.277c0.27 0.129 0.605 0.031 1.004-0.297z" inkscape:connector-curvature="0"/>
                  <path id="path286" style="fill-rule:evenodd;fill:#e3b924" d="m6.672 11.742c0.129-0.121 0.203-0.328 0.23-0.617 0.004-0.25-0.043-0.449-0.144-0.598-0.145-0.168-0.32-0.297-0.524-0.382-0.062-0.083-0.156-0.129-0.281-0.129-0.144-0.024-0.25-0.036-0.308-0.036l-0.563-0.105c-0.102 0-0.227-0.078-0.371-0.223-0.082-0.105-0.258-0.164-0.527-0.168-0.082 0-0.157 0.032-0.219 0.09l-0.192 0.215-0.125 0.063h0.032c0.207-0.082 0.457-0.067 0.75 0.043 0.101 0.043 0.164 0.078 0.183 0.097l0.282 0.035c0.144 0.024 0.402 0.082 0.777 0.172 0.226 0.086 0.379 0.129 0.465 0.133-0.004 0.164 0.004 0.27 0.023 0.313 0.207 0.105 0.309 0.191 0.309 0.253l-0.035 0.313c-0.004 0.082 0.015 0.156 0.058 0.219 0.102 0.082 0.129 0.211 0.086 0.375l0.094-0.063z" inkscape:connector-curvature="0"/>
                  <path id="path288" style="fill-rule:evenodd;fill:#ffe357" d="m4.562 11.082c-0.187 0.082-0.218 0.133-0.097 0.156 0.187 0.024 0.281 0.047 0.281 0.067 0 0.062 0.07 0.136 0.215 0.222 0.144 0.106 0.266 0.149 0.371 0.133 0.211-0.039 0.316-0.121 0.316-0.246 0-0.062-0.039-0.176-0.117-0.344-0.039-0.105-0.082-0.16-0.125-0.16-0.101 0-0.164-0.012-0.183-0.035-0.082-0.043-0.157-0.055-0.219-0.035-0.125 0.082-0.274 0.164-0.442 0.242z" inkscape:connector-curvature="0"/>
                  <path id="path290" style="fill-rule:evenodd;fill:#ffe357" d="m3.297 10.406c-0.043 0.063-0.024 0.125 0.058 0.188 0.04 0.043 0.09 0.066 0.153 0.066l0.312 0.004c0.375 0.008 0.594-0.062 0.66-0.207 0.043-0.062 0.043-0.082 0-0.062-0.082 0-0.164-0.024-0.246-0.067-0.105-0.043-0.187-0.066-0.25-0.066-0.148 0.039-0.261 0.058-0.343 0.058-0.188-0.004-0.305 0.024-0.344 0.086z" inkscape:connector-curvature="0"/>
                  <path id="path292" style="fill-rule:evenodd;fill:#ffe357" d="m5.18 11.531c0.289 0.004 0.386-0.078 0.285-0.246-0.02-0.019-0.156-0.023-0.406-0.008-0.145 0.02-0.188 0.063-0.129 0.125 0.082 0.082 0.168 0.129 0.25 0.129z" inkscape:connector-curvature="0"/>
                  <path id="path294" style="fill-rule:evenodd;fill:#d9ac0d" d="m20.191 13.227c0.145 0.043 0.282-0.039 0.407-0.243 0.129-0.187 0.175-0.351 0.136-0.496-0.043-0.105-0.125-0.179-0.25-0.222-0.121-0.024-0.238-0.059-0.339-0.102-0.165-0.066-0.457-0.019-0.875 0.141l-1.415 0.507 0.184 0.098c0.145 0.063 0.313 0.078 0.5 0.039 0.231-0.039 0.449-0.035 0.656 0.012 0.145 0.043 0.25 0.043 0.313 0.004 0.019-0.039 0.062-0.102 0.125-0.184 0.043-0.019 0.105 0.024 0.187 0.129 0.082 0.145 0.203 0.25 0.371 0.317z" inkscape:connector-curvature="0"/>
                  <path id="path296" style="fill-rule:evenodd;fill:#d9ac0d" d="m19.379 11.371c0.019 0.188 0.203 0.262 0.559 0.227 0.332-0.036 0.55-0.106 0.656-0.207 0.105-0.102-0.059-0.207-0.492-0.321-0.02-0.039-0.266-0.211-0.743-0.511-0.289-0.086-0.589-0.133-0.902-0.141-0.207-0.004-0.426 0.047-0.656 0.144-0.254 0.102-0.324 0.153-0.223 0.153l0.629-0.082c0.102 0 0.309 0.097 0.617 0.293 0.02 0.019 0.156 0.094 0.403 0.222 0.082 0.043 0.132 0.118 0.152 0.223z" inkscape:connector-curvature="0"/>
                  <path id="path298" style="fill-rule:evenodd;fill:#d9ac0d" d="m20.605 10.77c0.333 0.085 0.45-0.067 0.352-0.465-0.266-0.129-0.508-0.145-0.715-0.043l0.086 0.25c0.102 0.148 0.195 0.234 0.277 0.258z" inkscape:connector-curvature="0"/>
                  <path id="path300" style="fill-rule:evenodd;fill:#d9ac0d" d="m17.902 10.129c0.227 0.129 0.403 0.121 0.532-0.024 0.105-0.144 0.089-0.277-0.055-0.406-0.102-0.086-0.188-0.129-0.246-0.129-0.106 0.02-0.242 0.028-0.406 0.024-0.375-0.004-0.317 0.172 0.175 0.535z" inkscape:connector-curvature="0"/>
                  <path id="path302" style="fill-rule:evenodd;fill:#d9ac0d" d="m16.766 12.73c0.289 0.067 0.468 0.051 0.531-0.054 0.023-0.063 0.023-0.176 0.008-0.344-0.039-0.144-0.219-0.18-0.532-0.102-0.164 0.02-0.375 0.079-0.625 0.176-0.253 0.102-0.046 0.207 0.618 0.324z" inkscape:connector-curvature="0"/>
                  <path id="path304" style="fill-rule:evenodd;fill:#d9ac0d" d="m21.457 12.156c0.289 0.047 0.414 0.016 0.375-0.086-0.144-0.148-0.246-0.265-0.305-0.351-0.062-0.082-0.113-0.114-0.156-0.094-0.062 0.039-0.187 0.059-0.375 0.055-0.25-0.024-0.293 0.035-0.129 0.183 0.188 0.149 0.383 0.246 0.59 0.293z" inkscape:connector-curvature="0"/>
                  <path id="path306" style="fill-rule:evenodd;fill:#d9ac0d" d="m16.309 15.688c0.082 0.105 0.277 0.14 0.589 0.101 0.356-0.035 0.555-0.043 0.594-0.019 0.164 0.085 0.293-0.122 0.387-0.618 0.023-0.125 0.012-0.187-0.027-0.187-0.125-0.024-0.27-0.098-0.434-0.227-0.145-0.148-0.227-0.211-0.246-0.191-0.043 0.101-0.168 0.141-0.379 0.117-0.25-0.023-0.402-0.039-0.465-0.039-0.062 0.043-0.168 0.07-0.312 0.09-0.231-0.047-0.356-0.07-0.375-0.07-0.02 0-0.012 0.136 0.023 0.406 0.059 0.332 0.156 0.523 0.305 0.566 0.082 0.024 0.195 0.047 0.34 0.071z" inkscape:connector-curvature="0"/>
                  <path id="path308" style="fill-rule:evenodd;fill:#d9ac0d" d="m15.598 11.68c0.187 0.047 0.312-0.016 0.379-0.18 0.066-0.168 0.003-0.312-0.18-0.441-0.188-0.129-0.301-0.18-0.34-0.161l-0.32 0.305c-0.082 0.082-0.086 0.176-0.004 0.281 0.082 0.106 0.238 0.172 0.465 0.196z" inkscape:connector-curvature="0"/>
                  <path id="path310" style="fill-rule:evenodd;fill:#d9ac0d" d="m21.383 10.906c0.14 0.356 0.242 0.578 0.301 0.66 0.062 0.149 0.152 0.223 0.277 0.223 0.043 0 0.355-0.066 0.941-0.203 0.063-0.02 0.239 0.047 0.528 0.199l0.129-0.219c0.125-0.121 0.23-0.14 0.312-0.054l0.219-0.153c0.148-0.121 0.234-0.246 0.258-0.371 0.023-0.187-0.016-0.394-0.114-0.625l0.407-0.09c0.293-0.054 0.492-0.136 0.597-0.238 0.125-0.121 0.117-0.277-0.023-0.469-0.145-0.168-0.34-0.304-0.586-0.414-0.375-0.027-0.602-0.105-0.684-0.23-0.078-0.149-0.504-0.281-1.273-0.399-0.184-0.023-0.363 0.079-0.535 0.305-0.129 0.207-0.211 0.309-0.254 0.309-0.414-0.153-0.766-0.235-1.059-0.239l-1.34 0.04c-0.394 0.015-0.714-0.094-0.961-0.329l-0.214-0.347c-0.391-0.192-0.754-0.293-1.086-0.301-0.356 0.016-0.614 0.012-0.782-0.012-0.289-0.027-0.539-0.101-0.742-0.23-0.269-0.172-0.508-0.278-0.715-0.324-0.246-0.047-0.632-0.063-1.152-0.051-0.437 0.011-0.719 0.09-0.848 0.234l-0.066 0.25-0.996-0.051c-0.231-0.004-0.406 0.078-0.535 0.243l-0.098 0.277c-0.312-0.047-0.57-0.051-0.781-0.012-0.188 0.164-0.43 0.262-0.723 0.297h-0.187c0.082 0.082 0.238 0.098 0.468 0.039 0.293-0.039 0.5-0.055 0.625-0.055 0.02 0.024 0.102 0.047 0.247 0.071 0.519 0.215 0.796 0.25 0.843 0.105 0.086-0.164 0.305-0.304 0.66-0.426 0.188-0.035 0.555-0.05 1.094-0.043 0.043-0.019 0.199-0.101 0.473-0.242 0.211-0.097 0.449-0.136 0.719-0.109 0.23 0.043 0.433 0.183 0.617 0.414l0.152 0.129c0.145 0.062 0.262 0.078 0.344 0.039 0.254-0.121 0.566-0.149 0.937-0.078l0.809 0.293c0.039 0 0.234 0.14 0.582 0.418 0.371 0.254 0.672 0.394 0.898 0.418 0.188 0.027 0.407 0.05 0.657 0.074 0.183 0.023 0.339 0.078 0.465 0.164 0.203 0.129 0.39 0.246 0.554 0.355 0.164 0.063 0.278 0.129 0.34 0.192 0.082 0.086 0.184 0.273 0.301 0.566z" inkscape:connector-curvature="0"/>
                  <path id="path312" style="fill-rule:evenodd;fill:#f0c426" d="m24.004 9.266c-0.211-0.004-0.344-0.016-0.406-0.039-0.434-0.129-0.746-0.207-0.934-0.235-0.184-0.023-0.312 0.008-0.375 0.09-0.066 0.145-0.141 0.27-0.223 0.371-0.066 0.102-0.027 0.188 0.118 0.25 0.23 0.09 0.371 0.172 0.433 0.258 0.141 0.254 0.391 0.351 0.742 0.293 0.586-0.133 0.864-0.391 0.829-0.766-0.02-0.125-0.083-0.199-0.184-0.222z" inkscape:connector-curvature="0"/>
                  <path id="path314" style="fill-rule:evenodd;fill:#ffe357" d="m23.145 10.094c0.125 0.023 0.261-0.016 0.41-0.117 0.168-0.082 0.23-0.165 0.191-0.247-0.043-0.085-0.219-0.128-0.531-0.132-0.164-0.004-0.258 0.004-0.281 0.023-0.039 0.024-0.082 0.094-0.125 0.219-0.067 0.121-0.059 0.195 0.027 0.219 0.039 0.019 0.144 0.031 0.309 0.035z" inkscape:connector-curvature="0"/>
                </g>
              </g>
            </g>
          </g>
        </g>
      </g>
    </g>
    <g id="g316">
      <path id="path318" style="fill-rule:evenodd;fill:#ffd740" d="m13.957 12.292c0.027 0.133-0.078 0.25-0.32 0.359l-0.199 0.118c-0.079 0.027-0.133 0.015-0.161-0.039-0.078 0.027-0.144 0-0.199-0.079 0.027-0.082 0.11-0.148 0.242-0.203l0.078-0.039c-0.265 0.028-0.238-0.011 0.082-0.121h0.04c0.027-0.023 0.082-0.039 0.16-0.039 0.027-0.027 0.05-0.039 0.082-0.039 0.023-0.027 0.05-0.039 0.078-0.039 0.691-0.16 1.027-0.281 1-0.359-0.028-0.028-0.078-0.028-0.16 0-0.133 0.05-0.227 0.089-0.282 0.117-0.05 0.027-0.105 0.039-0.16 0.039-0.078 0-0.199 0.015-0.359 0.043-0.317 0.051-0.52 0.09-0.598 0.117-0.109 0.055-0.226 0.176-0.359 0.359-0.082 0.082-0.188 0.161-0.32 0.243 0.05 0.027 0.171 0.093 0.359 0.199 0.16 0.054 0.344 0.027 0.559-0.078 0.132-0.082 0.242-0.121 0.32-0.121 0.082 0.027 0.148 0.039 0.199 0.039 0.082 0 0.188 0.043 0.32 0.121 0.161 0.078 0.266 0.105 0.321 0.078 0.187 0 0.32 0.015 0.398 0.043 0.16-0.082 0.348-0.11 0.563-0.082l0.039-0.278c0.023-0.054 0-0.093-0.082-0.121 0-0.027-0.028-0.066-0.078-0.117-0.055-0.027-0.082-0.07-0.082-0.121 0.027-0.055 0.039-0.121 0.039-0.199 0-0.028-0.239-0.016-0.719 0.039-0.293 0.078-0.559 0.133-0.801 0.16zm0.922 0.559c-0.133 0-0.215-0.028-0.242-0.082-0.024-0.024-0.106-0.012-0.239 0.043-0.105 0.023-0.121-0.028-0.039-0.161 0.106-0.109 0.172-0.214 0.2-0.32 0.05-0.027 0.105-0.055 0.16-0.082 0.027 0.027 0.078 0.027 0.16 0 0.051-0.023 0.105-0.012 0.16 0.043 0.16 0.106 0.25 0.184 0.277 0.238 0.055 0.082 0.028 0.172-0.078 0.282-0.05 0.05-0.172 0.066-0.359 0.039z" inkscape:connector-curvature="0"/>
      <path id="path320" style="fill-rule:evenodd;fill:#f0c426" d="m15.637 12.929c0.269 0.054 0.453-0.106 0.562-0.477v-0.121c0.051-0.133 0.012-0.308-0.121-0.519-0.133-0.188-0.281-0.321-0.441-0.399-0.211-0.055-0.399-0.07-0.559-0.043-0.105-0.051-0.199-0.051-0.281 0-0.106 0.055-0.172 0.094-0.199 0.121l-0.481 0.078c-0.078 0.028-0.226 0.028-0.437 0-0.11-0.05-0.254-0.027-0.442 0.082-0.05 0.028-0.078 0.067-0.078 0.118v0.281l-0.082 0.039c-0.051 0.082-0.172 0.176-0.359 0.281-0.188 0.11-0.242 0.215-0.16 0.32l0.039 0.04c0.132-0.079 0.242-0.161 0.32-0.239 0.133-0.187 0.254-0.308 0.359-0.359 0.082-0.027 0.282-0.067 0.602-0.121 0.16-0.028 0.281-0.039 0.359-0.039 0.055 0 0.106-0.016 0.16-0.043 0.055-0.024 0.149-0.067 0.282-0.117 0.078-0.028 0.132-0.028 0.16 0 0.023 0.078-0.309 0.199-1 0.359-0.028 0-0.055 0.016-0.082 0.039 0.082 0.027 0.148 0.027 0.199 0h0.043c0 0.027-0.016 0.055-0.043 0.082 0.242-0.027 0.508-0.082 0.801-0.16 0.48-0.055 0.719-0.067 0.719-0.039 0 0.078-0.012 0.144-0.039 0.199 0 0.051 0.027 0.094 0.082 0.121 0.05 0.051 0.078 0.09 0.078 0.117 0.082 0.028 0.105 0.067 0.082 0.121l-0.043 0.278zm-2.239-0.52c0.028-0.023 0.055-0.066 0.079-0.117-0.317 0.106-0.344 0.145-0.079 0.117z" inkscape:connector-curvature="0"/>
      <path id="path322" style="fill-rule:evenodd;fill:#ffe357" d="m13.477 12.292c-0.024 0.051-0.051 0.094-0.079 0.117l-0.082 0.043c-0.132 0.051-0.211 0.117-0.238 0.199 0.051 0.079 0.121 0.106 0.199 0.079 0.028 0.054 0.082 0.066 0.161 0.043l0.199-0.122c0.242-0.109 0.347-0.226 0.32-0.359 0.027-0.027 0.043-0.055 0.043-0.082h-0.043c-0.051 0.027-0.117 0.027-0.199 0-0.028 0-0.055 0.016-0.082 0.039-0.078 0-0.133 0.016-0.156 0.043h-0.043zm1.402 0.559c0.187 0.027 0.309 0.011 0.359-0.039 0.106-0.11 0.133-0.2 0.082-0.282-0.027-0.054-0.121-0.132-0.281-0.242-0.055-0.051-0.109-0.066-0.16-0.039-0.082 0.027-0.133 0.027-0.16 0-0.055 0.027-0.106 0.055-0.16 0.082-0.028 0.106-0.094 0.211-0.2 0.32-0.082 0.133-0.066 0.184 0.039 0.161 0.133-0.055 0.215-0.071 0.243-0.043 0.023 0.054 0.105 0.082 0.238 0.082z" inkscape:connector-curvature="0"/>
      <path id="path324" style="fill-rule:evenodd;fill:#ffd740" d="m12.566 8.394c0.184-0.141 0.289-0.379 0.317-0.711 0-0.282-0.074-0.508-0.223-0.672-0.211-0.188-0.469-0.328-0.769-0.426-0.09-0.094-0.223-0.141-0.403-0.141-0.211-0.023-0.363-0.035-0.453-0.035l-0.808-0.105c-0.153 0-0.332-0.086-0.539-0.25-0.122-0.117-0.379-0.176-0.766-0.176-0.121 0-0.227 0.035-0.317 0.105l-0.269 0.25c-0.152 0.094-0.481 0.141-0.992 0.141-0.391 0-0.586 0.082-0.586 0.246 0 0.051 0.121 0.227 0.359 0.531 0.18 0.145 0.496 0.215 0.945 0.215 0.27 0 0.45 0.024 0.543 0.071 0.09 0.093 0.18 0.164 0.27 0.214 0.09 0.02 0.211 0.118 0.359 0.282 0.153 0.164 0.286 0.269 0.407 0.32 0.238 0.07 0.421 0.164 0.539 0.281 0.332 0 0.648 0.071 0.949 0.215 0.359 0.188 0.84 0.07 1.437-0.355z" inkscape:connector-curvature="0"/>
      <path id="path326" style="fill-rule:evenodd;fill:#f0c426" d="m12.566 8.394c0.184-0.141 0.289-0.379 0.317-0.711 0-0.282-0.074-0.508-0.223-0.672-0.211-0.188-0.469-0.328-0.769-0.426-0.09-0.094-0.223-0.141-0.403-0.141-0.211-0.023-0.363-0.035-0.453-0.035l-0.808-0.105c-0.153 0-0.332-0.086-0.539-0.25-0.122-0.117-0.379-0.176-0.766-0.176-0.121 0-0.227 0.035-0.317 0.105l-0.269 0.25-0.137 0.071c-0.152 0.047-0.433 0.07-0.855 0.07-0.391 0-0.586 0.082-0.586 0.246l0.047 0.074c0.238 0 0.476-0.023 0.718-0.074 0.391-0.117 0.707-0.176 0.946-0.176 0.121 0 0.437 0.059 0.945 0.176 0.301 0.074 0.527 0.145 0.676 0.215 0.031 0.023 0.105 0.035 0.226 0.035h0.539c0.153 0 0.227 0.035 0.227 0.106-0.035 0.093-0.648 0.05-1.848-0.121-1.191-0.172-1.468-0.176-0.832-0.02 0.641 0.152 1.368 0.316 2.184 0.496 0.812 0.188 1.203 0.305 1.172 0.356-0.09 0.07-0.164 0.128-0.227 0.175-0.09 0.071-0.121 0.141-0.09 0.211 0.059 0.098 0.09 0.157 0.09 0.18 0.031 0.07 0.016 0.129-0.043 0.176l-0.363 0.316c0.395 0.145 0.871 0.024 1.441-0.351z" inkscape:connector-curvature="0"/>
      <path id="path328" style="fill-rule:evenodd;fill:#e3b924" d="m12.566 8.394c0.184-0.141 0.289-0.379 0.317-0.711 0-0.282-0.074-0.508-0.223-0.672-0.211-0.188-0.469-0.328-0.769-0.426-0.09-0.094-0.223-0.141-0.403-0.141-0.211-0.023-0.363-0.035-0.453-0.035l-0.808-0.105c-0.153 0-0.332-0.086-0.539-0.25-0.122-0.117-0.379-0.176-0.766-0.176-0.121 0-0.227 0.035-0.317 0.105l-0.269 0.25-0.184 0.071h0.047c0.301-0.098 0.66-0.086 1.082 0.035 0.149 0.047 0.239 0.082 0.27 0.105l0.406 0.036c0.207 0.023 0.582 0.082 1.125 0.179 0.328 0.094 0.555 0.141 0.676 0.141 0 0.187 0.015 0.305 0.043 0.351 0.301 0.122 0.453 0.215 0.453 0.286l-0.047 0.351c0 0.098 0.031 0.18 0.09 0.25 0.152 0.094 0.195 0.235 0.137 0.426l0.132-0.07z" inkscape:connector-curvature="0"/>
      <path id="path330" style="fill-rule:evenodd;fill:#ffe357" d="m9.504 7.683c-0.27 0.097-0.316 0.156-0.133 0.179 0.27 0.024 0.402 0.047 0.402 0.071 0 0.07 0.106 0.152 0.317 0.25 0.211 0.117 0.39 0.164 0.543 0.14 0.297-0.047 0.449-0.14 0.449-0.285 0-0.07-0.062-0.199-0.18-0.387-0.062-0.121-0.121-0.179-0.179-0.179-0.153 0-0.243-0.012-0.274-0.035-0.117-0.047-0.222-0.059-0.312-0.036-0.18 0.094-0.391 0.188-0.633 0.282z" inkscape:connector-curvature="0"/>
      <path id="path332" style="fill-rule:evenodd;fill:#ffe357" d="m7.66 6.94c-0.062 0.071-0.031 0.141 0.086 0.211 0.063 0.051 0.137 0.075 0.227 0.075h0.449c0.543 0 0.855-0.086 0.949-0.25 0.059-0.071 0.059-0.094 0-0.071-0.121 0-0.242-0.023-0.363-0.07-0.149-0.047-0.27-0.07-0.36-0.07-0.21 0.047-0.375 0.07-0.496 0.07-0.269 0-0.433 0.035-0.492 0.105z" inkscape:connector-curvature="0"/>
      <path id="path334" style="fill-rule:evenodd;fill:#ffd740" d="m20.918 4.331c-0.16-0.055-0.281-0.121-0.359-0.199-0.188-0.16-0.332-0.254-0.442-0.281-0.078-0.028-0.265-0.039-0.558-0.039-0.188 0-0.321 0.011-0.399 0.039-0.055 0-0.109-0.016-0.16-0.039-0.055 0-0.148-0.028-0.281-0.082-0.082 0-0.133 0.015-0.16 0.039-0.028 0.082 0.32 0.148 1.039 0.203 0.027 0 0.054 0.011 0.082 0.039h0.078c0.082 0 0.133 0.012 0.16 0.039h0.039c0.32 0.055 0.348 0.082 0.082 0.082l0.078 0.039c0.16 0.027 0.254 0.082 0.281 0.16-0.027 0.078-0.078 0.121-0.16 0.121-0.027 0.051-0.078 0.067-0.16 0.039l-0.238-0.082c-0.215-0.051-0.32-0.144-0.32-0.281-0.243 0-0.52-0.012-0.84-0.039-0.481 0.027-0.719 0.055-0.719 0.082 0 0.078 0.023 0.133 0.078 0.16 0 0.051-0.027 0.106-0.078 0.16-0.027 0.051-0.043 0.094-0.043 0.117-0.078 0.055-0.106 0.094-0.078 0.122l0.078 0.281c0.215-0.051 0.414-0.051 0.602 0 0.05-0.028 0.171-0.067 0.359-0.121 0.082 0.027 0.187-0.012 0.32-0.117 0.133-0.11 0.239-0.161 0.321-0.161 0.05 0 0.117-0.027 0.199-0.082 0.051 0 0.144 0.028 0.281 0.082 0.238 0.051 0.426 0.051 0.559 0 0.187-0.16 0.304-0.254 0.359-0.281zm-1.758 0.359c-0.137-0.027-0.215-0.027-0.242 0-0.027 0.055-0.106 0.094-0.242 0.122-0.184 0.05-0.305 0.066-0.36 0.039-0.132-0.106-0.171-0.2-0.117-0.282 0-0.05 0.078-0.144 0.239-0.281 0.027-0.051 0.082-0.078 0.16-0.078 0.082 0.027 0.132 0.027 0.16 0 0.054 0 0.105 0.012 0.16 0.039 0.055 0.109 0.133 0.199 0.242 0.281 0.106 0.133 0.106 0.188 0 0.16z" inkscape:connector-curvature="0"/>
      <path id="path336" style="fill-rule:evenodd;fill:#ffe357" d="m19.68 4.011c-0.055 0.027-0.121 0.039-0.203 0.039h-0.039l0.082 0.082c0 0.133 0.105 0.226 0.32 0.281l0.238 0.078c0.082 0.028 0.133 0.012 0.16-0.039 0.082 0 0.133-0.039 0.16-0.121-0.027-0.078-0.121-0.133-0.281-0.16l-0.078-0.039-0.082-0.082h-0.039c-0.027-0.024-0.078-0.039-0.16-0.039h-0.078zm-0.52 0.679c0.106 0.028 0.106-0.027 0-0.16-0.109-0.078-0.187-0.172-0.242-0.281-0.055-0.023-0.106-0.039-0.16-0.039-0.028 0.027-0.082 0.027-0.16 0-0.078 0-0.133 0.027-0.16 0.082-0.161 0.133-0.239 0.227-0.239 0.277-0.054 0.082-0.015 0.176 0.117 0.282 0.055 0.027 0.176 0.015 0.36-0.039 0.136-0.028 0.215-0.067 0.242-0.122 0.027-0.027 0.105-0.027 0.242 0z" inkscape:connector-curvature="0"/>
      <path id="path338" style="fill-rule:evenodd;fill:#f0c426" d="m19.52 4.132-0.082-0.082h0.039c0.082 0 0.148-0.012 0.203-0.039-0.028-0.028-0.055-0.039-0.082-0.039-0.719-0.055-1.067-0.121-1.039-0.203 0.027-0.024 0.078-0.039 0.16-0.039 0.133 0.054 0.226 0.082 0.281 0.082 0.051 0.023 0.105 0.039 0.16 0.039 0.078-0.028 0.211-0.039 0.399-0.039 0.293 0 0.48 0.011 0.558 0.039 0.11 0.027 0.254 0.121 0.442 0.281 0.078 0.078 0.199 0.144 0.359 0.199v-0.039c0.082-0.133 0.012-0.227-0.199-0.281-0.215-0.082-0.348-0.16-0.403-0.242l-0.078-0.039-0.039-0.278c-0.027-0.027-0.066-0.043-0.121-0.043-0.187-0.078-0.332-0.094-0.441-0.039-0.184 0.082-0.317 0.106-0.399 0.082h-0.48c-0.055-0.027-0.133-0.054-0.238-0.082-0.082-0.055-0.176-0.039-0.282 0.039-0.16 0-0.347 0.043-0.562 0.121-0.133 0.106-0.25 0.254-0.36 0.442-0.105 0.238-0.117 0.414-0.039 0.519v0.117c0.188 0.375 0.399 0.508 0.641 0.403l-0.078-0.281c-0.028-0.028 0-0.067 0.078-0.118 0-0.027 0.016-0.066 0.043-0.121 0.051-0.054 0.078-0.105 0.078-0.16-0.051-0.027-0.078-0.078-0.078-0.16 0-0.027 0.238-0.051 0.719-0.078 0.32 0.023 0.597 0.039 0.84 0.039zm0.437-0.082 0.082 0.082c0.266 0 0.238-0.027-0.082-0.082z" inkscape:connector-curvature="0"/>
    </g>
  </g>
<metadata><rdf:RDF><cc:Work><dc:format>image/svg+xml</dc:format><dc:type rdf:resource="http://purl.org/dc/dcmitype/StillImage"/><cc:license rdf:resource="http://creativecommons.org/licenses/publicdomain/"/><dc:publisher><cc:Agent rdf:about="http://openclipart.org/"><dc:title>Openclipart</dc:title></cc:Agent></dc:publisher></cc:Work><cc:License rdf:about="http://creativecommons.org/licenses/publicdomain/"><cc:permits rdf:resource="http://creativecommons.org/ns#Reproduction"/><cc:permits rdf:resource="http://creativecommons.org/ns#Distribution"/><cc:permits rdf:resource="http://creativecommons.org/ns#DerivativeWorks"/></cc:License></rdf:RDF></metadata></svg>
