<?xml version="1.0" encoding="iso-8859-1"?>
<!-- Uploaded to: SVG Repo, www.svgrepo.com, Generator: SVG Repo Mixer Tools -->
<svg height="800px" width="800px" version="1.1" id="Layer_1" xmlns="http://www.w3.org/2000/svg" xmlns:xlink="http://www.w3.org/1999/xlink" 
	 viewBox="0 0 512 512" xml:space="preserve">
<path style="fill:#F1EDE8;" d="M102.079,247.449c0-85.008,68.913-239.432,153.921-239.432s153.921,154.424,153.921,239.432
	S341.008,401.37,256,401.37S102.079,332.457,102.079,247.449z"/>
<path style="fill:#E3DCD2;" d="M153.386,196.142c0-70.19,27.291-133.996,71.826-181.42
	c-70.254,30.54-123.133,158.263-123.133,232.727c0,83.186,65.992,150.947,148.479,153.815
	C191.242,352.649,153.386,278.819,153.386,196.142z"/>
<path style="fill:#40CACF;" d="M256,418.472c94.453,0,171.023-76.57,171.023-171.023H84.977
	C84.977,341.902,161.547,418.472,256,418.472z"/>
<path style="fill:#3AB0B0;" d="M136.284,247.449H84.977c0,94.453,76.57,171.023,171.023,171.023c8.719,0,17.285-0.657,25.653-1.915
	C199.371,404.178,136.284,333.183,136.284,247.449z"/>
<g>
	<polygon style="fill:#40CACF;" points="256,469.779 341.511,503.983 170.489,503.983 	"/>
	<path style="fill:#40CACF;" d="M427.023,298.756H84.977c-9.446,0-17.102-7.656-17.102-17.102v-17.102
		c0-9.446,7.656-17.102,17.102-17.102h342.046c9.446,0,17.102,7.656,17.102,17.102v17.102
		C444.125,291.099,436.469,298.756,427.023,298.756z"/>
</g>
<path style="fill:#F9C900;" d="M388.002,145.233C361.085,75.136,312.043,8.017,256,8.017c-57.362,0-107.39,70.314-133.865,142.167
	c5.328,11.961,17.312,20.305,31.251,20.305c18.891,0,34.205-15.314,34.205-34.205V93.528c0,18.891,15.314,34.205,34.205,34.205
	S256,112.419,256,93.528v59.858c0,18.891,15.314,34.205,34.205,34.205s34.205-15.314,34.205-34.205v-25.653
	c0,18.891,15.314,34.205,34.205,34.205C371.108,161.937,382.033,155.235,388.002,145.233z"/>
<path style="fill:#F9AA0C;" d="M154.629,170.458c5.771-60.009,31.546-114.164,70.58-155.73
	c-44.168,19.204-81.466,76.814-103.074,135.458c5.328,11.961,17.312,20.305,31.251,20.305
	C153.803,170.489,154.216,170.471,154.629,170.458z"/>
<path d="M427.023,239.432h-9.276c-2.128-47.021-22.476-109.375-51.34-156.737c-2.305-3.781-7.239-4.978-11.018-2.673
	c-3.781,2.305-4.977,7.237-2.673,11.018c9.96,16.342,18.851,34.521,26.249,53.171c-0.009,0.011-0.019,0.02-0.028,0.031
	c-5.002,6.151-12.41,9.679-20.323,9.679c-14.441,0-26.188-11.748-26.188-26.188c0-4.427-3.588-8.017-8.017-8.017
	c-4.428,0-8.017,3.589-8.017,8.017v25.653c0,14.44-11.747,26.188-26.188,26.188s-26.188-11.748-26.188-26.188V93.528
	c0-4.427-3.588-8.017-8.017-8.017c-4.427,0-8.017,3.589-8.017,8.017c0,14.44-11.748,26.188-26.188,26.188
	s-26.188-11.748-26.188-26.188c0-4.427-3.589-8.017-8.017-8.017s-8.017,3.589-8.017,8.017v42.756
	c0,14.44-11.748,26.188-26.188,26.188c-8.902,0-17.117-4.469-21.975-11.953c-0.176-0.27-0.369-0.523-0.57-0.765
	c6.872-18.117,15.206-35.951,24.651-52.318C173.035,67.035,209.42,16.033,256,16.033c29.907,0,55.441,21.96,71.598,40.384
	c2.918,3.33,7.985,3.661,11.313,0.742s3.661-7.984,0.741-11.312C313.35,15.854,284.424,0,256,0
	c-40.494,0-81.12,31.757-114.395,89.421c-26.957,46.715-45.334,105.117-47.351,150.011h-9.277
	c-13.851,0-25.119,11.268-25.119,25.119v17.102c0,13.851,11.268,25.119,25.119,25.119h2.048
	c24.251,69.076,88.298,116.28,160.958,119.53v38.048l-80.473,32.189c-3.568,1.427-5.621,5.185-4.894,8.959
	c0.727,3.773,4.03,6.501,7.872,6.501h171.023c3.844,0,7.146-2.727,7.871-6.501c0.728-3.774-1.325-7.532-4.894-8.959l-80.472-32.188
	v-38.047c72.826-3.239,136.684-50.385,160.949-119.531h2.058c13.851,0,25.119-11.268,25.119-25.119v-17.102
	C452.142,250.7,440.874,239.432,427.023,239.432z M124.683,167.249c7.712,7.169,17.891,11.257,28.703,11.257
	c23.28,0,42.221-18.941,42.221-42.221v-9.66c7.202,5.711,16.304,9.125,26.188,9.125s18.986-3.414,26.188-9.125v26.762
	c0,23.28,18.941,42.221,42.221,42.221c20.905,0,38.31-15.27,41.645-35.244c7.29,5.99,16.614,9.59,26.764,9.59
	c9.747,0,19.01-3.326,26.438-9.311c9.486,27.521,15.498,55.202,16.648,78.789H110.298
	C111.353,217.684,116.481,192.559,124.683,167.249z M212.116,495.967L256,478.413l43.884,17.553H212.116z M436.109,281.653
	c0,5.01-4.076,9.086-9.086,9.086H187.591c-4.427,0-8.017,3.589-8.017,8.017c0,4.427,3.589,8.017,8.017,8.017h220.283
	C383.562,369.078,323.411,410.455,256,410.455c-67.24,0-127.559-41.435-151.872-103.683h41.241c4.427,0,8.017-3.589,8.017-8.017
	c0-4.427-3.589-8.017-8.017-8.017H84.977c-5.01,0-9.086-4.076-9.086-9.086v-17.102c0-5.01,4.076-9.086,9.086-9.086h342.046
	c5.01,0,9.086,4.076,9.086,9.086V281.653z"/>
</svg>